<?xml version="1.0" encoding="UTF-8"?>
<svg width="84px" height="34px" viewBox="0 0 84 34" version="1.1" xmlns="http://www.w3.org/2000/svg" xmlns:xlink="http://www.w3.org/1999/xlink">
    <defs></defs>
    <g id="Symbols" stroke="none" stroke-width="1" fill="none" fill-rule="evenodd">
        <g id="Logo-/-Dark">
            <g id="Logo">
                <path d="M40.5,18 L40.5,18 C42.4329966,18 44,19.5670034 44,21.5 L44,30.5 C44,32.4329966 42.4329966,34 40.5,34 L40.5,34 C38.5670034,34 37,32.4329966 37,30.5 L37,21.5 C37,19.5670034 38.5670034,18 40.5,18 Z" id="Rectangle-4" fill="#000000"></path>
                <path d="M63.4901171,21.80837 C63.3297347,22.3701598 59.2888881,26.1451233 55.8758083,29.2475248 L61.4752475,29.2475248 C62.8696298,29.2475248 64,30.3114026 64,31.6237624 C64,32.9361222 62.8696298,34 61.4752475,34 L49.5247525,34 C48.1285798,33.9900741 47,32.920945 47,31.6035301 C47,31.013914 47.2260611,30.474031 47.6009975,30.0565843 C47.7435883,29.8978265 55.1297205,22.9358157 55.3111303,22.8164736 C55.3396179,22.7977329 55.3749444,22.7762437 55.4162076,22.7524752 L49.5247525,22.7524752 C48.1303702,22.7524752 47,21.6885974 47,20.3762376 C47,19.0638778 48.1303702,18 49.5247525,18 L61.4752475,18 C62.8696298,18 64,19.0638778 64,20.3762376 C64,20.9140517 63.8101637,21.4101354 63.4901171,21.80837 Z" id="Combined-Shape" fill="#000000"></path>
                <path d="M40.5,16 C42.8333333,13.4926407 44,11.6176407 44,10.375 C44,8.51103897 42.4329966,7 40.5,7 C38.5670034,7 37,8.51103897 37,10.375 C37,11.6176407 38.1666667,13.4926407 40.5,16 Z" id="Oval-8" fill="#EE3B56"></path>
                <path d="M80.5,18 L80.5,18 C82.4329966,18 84,19.5670034 84,21.5 L84,30.5 C84,32.4329966 82.4329966,34 80.5,34 L80.5,34 C78.5670034,34 77,32.4329966 77,30.5 L77,21.5 C77,19.5670034 78.5670034,18 80.5,18 Z" id="Rectangle-4" fill="#000000"></path>
                <path d="M70.5,0 L70.5,0 C72.4329966,-3.55085719e-16 74,1.56700338 74,3.5 L74,30.5 C74,32.4329966 72.4329966,34 70.5,34 L70.5,34 C68.5670034,34 67,32.4329966 67,30.5 L67,3.5 C67,1.56700338 68.5670034,3.55085719e-16 70.5,0 Z" id="Rectangle-4" fill="#000000"></path>
                <path d="M80.5,16 C82.8333333,13.4926407 84,11.6176407 84,10.375 C84,8.51103897 82.4329966,7 80.5,7 C78.5670034,7 77,8.51103897 77,10.375 C77,11.6176407 78.1666667,13.4926407 80.5,16 Z" id="Oval-8" fill="#EE3B56"></path>
                <path d="M17,0 C26.3888407,-1.72470207e-15 34,7.61115925 34,17 C34,26.3888407 26.3888407,34 17,34 L0,34 L3.55271368e-15,17 C2.4029123e-15,7.61115925 7.61115925,1.72470207e-15 17,0 Z M17,10.2 C13.2444637,10.2 10.2,13.2444637 10.2,17 L10.2,23.8 L17,23.8 C20.7555363,23.8 23.8,20.7555363 23.8,17 C23.8,13.2444637 20.7555363,10.2 17,10.2 Z" id="Combined-Shape" fill="#EE3B56"></path>
            </g>
        </g>
    </g>
</svg>