<svg width="24" height="24" fill="none" xmlns="http://www.w3.org/2000/svg"><path fill-rule="evenodd" clip-rule="evenodd" d="M.03 6c0-2.828 0-4.242.876-5.121C1.786 0 3.197 0 6.021 0h11.987c2.824 0 4.236 0 5.115.879C24 1.758 24 3.172 24 6v12c0 2.828 0 4.242-.877 5.121-.879.879-2.291.879-5.115.879H6.02c-2.824 0-4.236 0-5.115-.879C.03 22.242.03 20.828.03 18V6zm15.779 1.32h-2.21V4H10v3.32H8v2.52h2v4.957C10 17.92 11.059 19 14 19c1.187 0 2-.42 2-.42l-.065-2.522h-1.134c-1.155 0-1.176-.985-1.201-2.086V9.84h2.209V7.319z" fill="#E31717"/></svg>