<svg width="30" height="27" fill="none" xmlns="http://www.w3.org/2000/svg"><path fill-rule="evenodd" clip-rule="evenodd" d="M0 5a5 5 0 0 1 5-5h20a5 5 0 0 1 5 5v12.2a5 5 0 0 1-5 5h-5.95l-2.441 3.305a2 2 0 0 1-3.218 0L10.95 22.2H5a5 5 0 0 1-5-5V5zm5-3a3 3 0 0 0-3 3v12.2a3 3 0 0 0 3 3h6.454a1 1 0 0 1 .805.406L15 24.316l2.741-3.71a1 1 0 0 1 .805-.406H25a3 3 0 0 0 3-3V5a3 3 0 0 0-3-3H5z" fill="#4085D5"/><path d="M13.994 12.821c0-.654.07-1.17.21-1.545.14-.381.367-.71.681-.988.315-.278.552-.531.714-.76.165-.233.248-.488.248-.766 0-.676-.276-1.015-.828-1.015a.752.752 0 0 0-.618.296c-.157.197-.24.464-.248.8H12c.008-.896.276-1.593.803-2.09C13.329 6.25 14.068 6 15.019 6c.947 0 1.68.23 2.198.692.522.462.783 1.118.783 1.97 0 .371-.07.71-.21 1.014-.14.305-.365.616-.675.934l-.733.72c-.208.21-.352.427-.433.651-.08.22-.125.5-.134.84h-1.821zm-.262 2.043c0-.331.113-.602.338-.813a1.2 1.2 0 0 1 .854-.323c.34 0 .622.108.847.323.229.21.344.482.344.813 0 .332-.115.605-.344.82-.225.21-.508.316-.847.316-.34 0-.625-.105-.854-.316a1.085 1.085 0 0 1-.338-.82z" fill="#4085D5"/></svg>