<?xml version="1.0" encoding="UTF-8"?>
<svg width="22px" height="22px" viewBox="0 0 22 22" version="1.1" xmlns="http://www.w3.org/2000/svg" xmlns:xlink="http://www.w3.org/1999/xlink">
    <defs>
        <path d="M12,23 C5.92486775,23 1,18.0751322 1,12 C1,5.92486775 5.92486775,1 12,1 C18.0751322,1 23,5.92486775 23,12 C23,18.0751322 18.0751322,23 12,23 Z M12,21.952381 C17.4965482,21.952381 21.952381,17.4965482 21.952381,12 C21.952381,6.50345178 17.4965482,2.04761905 12,2.04761905 C6.50345178,2.04761905 2.04761905,6.50345178 2.04761905,12 C2.04761905,17.4965482 6.50345178,21.952381 12,21.952381 Z M12.0095158,20.3904682 C12.8834047,20.3904682 13.5904602,19.6834127 13.5904602,18.8095238 L10.4285714,18.8095238 C10.4285714,19.6834127 11.135627,20.3904682 12.0095158,20.3904682 Z M16.969112,15.5534106 L16.969112,11.1364221 C16.969112,8.67027027 15.2317632,6.60900901 12.9202059,6.10841699 L12.9202059,5.24710425 C12.9202059,4.63608752 12.4269755,4.14285714 11.8159588,4.14285714 C11.2049421,4.14285714 10.7117117,4.63608752 10.7117117,5.24710425 L10.7117117,6.10841699 C8.40015444,6.60900901 6.66280566,8.67027027 6.66280566,11.1364221 L6.66280566,15.5534106 L5.19047619,17.02574 L5.19047619,17.7619048 L18.4414414,17.7619048 L18.4414414,17.02574 L16.969112,15.5534106 Z" id="path-1"></path>
    </defs>
    <g id="Symbols" stroke="none" stroke-width="1" fill="none" fill-rule="evenodd">
        <g id="Navigation-/-Left-Icons-/-Alert" transform="translate(-1.000000, -1.000000)">
            <mask id="mask-2" fill="white">
                <use xlink:href="#path-1"></use>
            </mask>
            <use id="Combined-Shape" fill="#979797" fill-rule="nonzero" xlink:href="#path-1"></use>
        </g>
    </g>
</svg>