<?xml version="1.0" encoding="UTF-8"?>
<svg width="26px" height="26px" viewBox="0 0 26 26" version="1.1" xmlns="http://www.w3.org/2000/svg" xmlns:xlink="http://www.w3.org/1999/xlink">
    <defs></defs>
    <g id="Symbols" stroke="none" stroke-width="1" fill="none" fill-rule="evenodd">
        <g id="Navigation-/-Left-Icons-/-Link-2-/-InActive" transform="translate(-21.000000, 0.000000)" fill="#9B9B9B">
            <path d="M43.1924044,3.80753084 C40.7367892,1.35223928 37.4722387,0 34,0 C30.5275024,0 27.2628871,1.35223928 24.8075308,3.80753084 C22.3522393,6.26288714 21,9.52750235 21,13 C21,15.3392762 21.629215,17.6334929 22.8195378,19.6351462 C23.9517881,21.5386527 25.5616954,23.1331517 27.4755604,24.2461741 C29.4489221,25.393509 31.7050064,26 34,26 C36.2949936,26 38.5510779,25.393509 40.5241159,24.2461741 C42.4383046,23.1331517 44.0482119,21.5386527 45.1801385,19.6351462 C46.370785,17.6334929 47,15.3392762 47,13 C47,9.52750235 45.6477607,6.26288714 43.1924044,3.80753084 Z M34,1.03585142 C40.5969492,1.03585142 45.9641486,6.40298604 45.9641486,13 C45.9641486,14.8663453 45.5288968,16.7018093 44.699374,18.3570351 C43.6109531,16.7832531 42.1816077,15.4583344 40.5241159,14.4948631 C39.3314625,13.8011663 38.0354182,13.3057056 36.6897824,13.0220118 C38.1813437,12.1118222 39.1792571,10.4690265 39.1792571,8.59763149 C39.1792571,5.74165965 36.8556481,3.41837441 34,3.41837441 C31.1440929,3.41837441 28.8207429,5.74165965 28.8207429,8.59763149 C28.8207429,10.4690265 29.8183973,12.1118222 31.3099586,13.0220118 C29.9645818,13.3057056 28.6682138,13.8011663 27.4755604,14.4948631 C25.8183923,15.4583344 24.3890469,16.7829941 23.3003023,18.3570351 C22.4711032,16.7018093 22.0358514,14.8663453 22.0358514,13 C22.0358514,6.40298604 27.402986,1.03585142 34,1.03585142 Z M34,12.7410371 C31.715365,12.7410371 29.8565943,10.8822665 29.8565943,8.59763149 C29.8565943,6.31299645 31.715365,4.45422583 34,4.45422583 C36.284635,4.45422583 38.1434057,6.31299645 38.1434057,8.59763149 C38.1434057,10.8822665 36.284635,12.7410371 34,12.7410371 Z M34,24.9641486 C29.9054088,24.9641486 26.0537896,22.8286762 23.8723512,19.3708746 C26.0537896,15.9125552 29.9054088,13.7768886 34,13.7768886 C38.0945912,13.7768886 41.9461457,15.9125552 44.127584,19.3708746 C41.9461457,22.8286762 38.0943322,24.9641486 34,24.9641486 Z M32.0235955,6.06639907 C32.2489579,5.89036907 32.5744095,5.93011987 32.7506985,6.15541755 C32.9267285,6.3809742 32.8869777,6.70649051 32.66168,6.88252051 C32.129576,7.29847959 31.8245825,7.9234217 31.8245825,8.59763149 C31.8245825,8.88365596 31.5926813,9.11555719 31.3066568,9.11555719 C31.0206324,9.11555719 30.7887311,8.88365596 30.7887311,8.59763149 C30.7887311,7.60250198 31.2388733,6.67994681 32.0235955,6.06639907 Z M35.4826918,5.74852217 C35.7363459,5.88078745 35.8347518,6.19361457 35.7024865,6.44726869 C35.6101663,6.62452876 35.4296044,6.72597746 35.242698,6.72597746 C35.16229,6.72597746 35.0803283,6.70700843 35.00374,6.66699867 C34.692143,6.5046937 34.3542612,6.42221403 34,6.42221403 C33.7139755,6.42221403 33.4820743,6.1903128 33.4820743,5.90428833 C33.4820743,5.61826385 33.7139755,5.38636262 34,5.38636262 C34.5154008,5.38636262 35.0280178,5.51157116 35.4826918,5.74852217 Z" id="Fill-1"></path>
        </g>
    </g>
</svg>