<?xml version="1.0" encoding="UTF-8"?>
<svg width="26px" height="26px" viewBox="0 0 26 26" version="1.1" xmlns="http://www.w3.org/2000/svg" xmlns:xlink="http://www.w3.org/1999/xlink">
    <defs></defs>
    <g id="Symbols" stroke="none" stroke-width="1" fill="none" fill-rule="evenodd">
        <g id="Navigation-/-Left-Icons-/-Link-5-/-InActive" transform="translate(-21.000000, 0.000000)" fill="#9B9B9B" fill-rule="nonzero">
            <path d="M27.300926,8.28537291 C27.308557,8.05238563 27.33145,7.34306879 27.8888954,7.15253697 C28.4417622,6.96373098 29.006457,7.4752675 29.1140543,7.57916257 C29.2578988,7.71860978 29.2498863,7.93710007 29.0961214,8.06722778 C28.9423565,8.19735549 28.700835,8.190107 28.5566089,8.05100497 C28.4272633,7.92743541 28.2292385,7.80662719 28.1491129,7.80179486 C28.1548362,7.81353052 28.0758552,7.92570958 28.063264,8.30539256 C28.021675,9.5818177 29.1178698,9.92698404 29.1289347,9.93043571 C29.2498863,9.96667817 29.3426031,10.0553859 29.3761795,10.1665295 L29.3933493,10.2234819 C29.3994541,10.2438467 29.4036511,10.2649019 29.4055589,10.2863022 C29.7146149,13.6157768 32.6250825,14.6930409 33.9860734,14.6930409 C35.3470643,14.6930409 38.2579135,13.6157768 38.5665879,10.2863022 C38.5684957,10.2649019 38.5726927,10.2438467 38.5787975,10.2234819 L38.5959673,10.1665295 C38.6299253,10.0553859 38.7226421,9.96702334 38.8432121,9.93043571 C38.8859457,9.91697422 39.9500903,9.56524971 39.9088828,8.30539256 C39.895147,7.87980246 39.79747,7.79005921 39.7963254,7.78902371 C39.7547364,7.79972387 39.5422127,7.92812575 39.4155379,8.0506598 C39.2716934,8.190107 39.0301718,8.19701033 38.8760254,8.06688262 C38.7222605,7.93675491 38.714248,7.71826461 38.8580925,7.57881741 C38.9660713,7.47457717 39.5319108,6.96338582 40.0836329,7.15219181 C40.6410783,7.34272363 40.6639714,8.0516953 40.6716024,8.28502775 C40.7124283,9.53901707 39.895147,10.2331466 39.31023,10.4992698 C38.914562,13.8667127 35.978912,15.3830284 33.9856919,15.3830284 C31.9924717,15.3830284 29.0572032,13.8663675 28.6611538,10.4992698 C28.0773814,10.2334918 27.2601001,9.53970741 27.300926,8.28537291 Z M44.7064996,18.4833125 C44.7064996,18.4657091 44.7049734,18.4481056 44.701921,18.4308473 C44.298622,16.0588641 42.1840688,13.8380639 39.314427,12.7721902 C39.1194547,12.7000504 38.8962476,12.7839259 38.8165035,12.9603059 C38.7367595,13.1366859 38.8298578,13.338263 39.0244486,13.4107479 C41.6411223,14.3823912 43.5687158,16.3819398 43.9430169,18.5098903 L43.9445431,22.3011975 C43.9456877,22.3136235 44.0513773,23.5289541 43.2691986,24.3000558 C42.8265999,24.736346 42.1684252,24.9572525 41.3122258,24.9572525 C41.1016098,24.9572525 40.9306752,25.111887 40.9306752,25.3024188 C40.9306752,25.4929506 41.1016098,25.6475852 41.3122258,25.6475852 C42.3935401,25.6475852 43.2428716,25.3497066 43.8358012,24.7622335 C44.8446209,23.7629769 44.7106966,22.3011975 44.706118,22.2708228 L44.706118,18.4833125 L44.7064996,18.4833125 Z M26.5904788,24.9579428 C25.7342794,24.9579428 25.0761047,24.7366912 24.633506,24.3004009 C23.8513274,23.5296445 23.9570169,22.3139686 23.9596877,22.2715132 L23.9596877,18.5102355 C24.3343704,16.382285 26.2615823,14.3827364 28.878256,13.4110931 C29.0732284,13.3386082 29.1663267,13.137031 29.0862011,12.960651 C29.0060755,12.784271 28.7836315,12.7003956 28.5882776,12.7725354 C25.7190174,13.838409 23.6044641,16.0592093 23.2011652,18.4311924 C23.1981128,18.4484507 23.1965866,18.4660542 23.1965866,18.4836577 L23.1981128,22.2404482 C23.192008,22.302233 23.0580837,23.7640124 24.0669034,24.7629238 C24.659833,25.3503969 25.5091646,25.6482755 26.5904788,25.6482755 C26.8010948,25.6482755 26.9720294,25.493641 26.9720294,25.3031092 C26.9720294,25.1125773 26.8010948,24.9579428 26.5904788,24.9579428 Z M39.6440867,24.5257945 C39.1747795,24.5257945 38.7466798,24.3766827 38.400995,24.1354114 C37.3009847,25.3196771 35.6980908,26 33.9868365,26 C32.2748191,26 30.6864241,25.3224385 29.587177,24.1440406 C29.2433999,24.3801343 28.8198788,24.5257945 28.3559133,24.5257945 C27.2261421,24.5257945 26.3069868,23.6942888 26.3069868,22.6722513 L26.3066052,20.3202878 C26.3035528,19.8153095 26.3001189,19.2426785 26.7495854,18.8336564 C27.0853499,18.5281842 27.6111266,18.3797626 28.3559133,18.3797626 C28.5360052,18.3797626 28.7019797,18.3894273 28.8568892,18.4066856 C29.8386188,16.6763667 31.8272603,15.5666569 33.9872181,15.5666569 C36.1357293,15.5666569 38.0923206,16.6359823 39.0935092,18.3573268 C39.1034296,18.3745851 39.1041927,18.392879 39.110679,18.4108276 C39.2747458,18.390808 39.4514037,18.3797626 39.6444683,18.3797626 C40.3896365,18.3797626 40.9150316,18.5281842 41.2507961,18.8336564 C41.7002627,19.2426785 41.6968287,19.8149643 41.6937763,20.3202878 L41.6933948,22.6722513 C41.6930132,23.6942888 40.7738579,24.5257945 39.6440867,24.5257945 Z M34.9727632,16.3460425 L34.9727632,18.4443087 C35.707248,18.6986963 36.2910204,19.2268008 36.5718416,19.8909009 L37.6024096,19.8909009 C37.6249211,19.5112179 37.7119147,19.1294639 38.0373773,18.8336564 C38.1331465,18.7463293 38.2491378,18.6755702 38.3765757,18.6137854 C37.6573529,17.4243422 36.4085379,16.6056076 34.9727632,16.3460425 Z M30.4044583,21.6467621 L31.3896218,21.6467621 C31.2797353,21.3771872 31.2163979,21.0869023 31.2163979,20.7831559 C31.2163979,20.7151581 31.2217396,20.6481958 31.2278444,20.5815787 L30.4044583,20.5815787 L30.4044583,21.6467621 Z M33.9868365,22.5987308 C35.0933331,22.5987308 35.9937925,21.7841383 35.9937925,20.7831559 C35.9937925,19.7821735 35.0937147,18.9675809 33.9868365,18.9675809 C32.8799583,18.9675809 31.9798805,19.7818283 31.9798805,20.7831559 C31.9798805,21.7844834 32.8803399,22.5987308 33.9868365,22.5987308 Z M36.7568936,20.7831559 C36.7568936,21.0869023 36.6939377,21.3771872 36.5836696,21.6467621 L37.5947786,21.6467621 L37.5943971,20.5815787 L36.7450655,20.5815787 C36.7515519,20.6481958 36.7568936,20.7151581 36.7568936,20.7831559 Z M33.9868365,16.2569896 C33.9120526,16.2569896 33.8380318,16.2614768 33.764011,16.2642381 L33.764011,18.2876032 C33.8376502,18.2820806 33.911671,18.2772482 33.9868365,18.2772482 C34.062002,18.2772482 34.1360228,18.2820806 34.209662,18.2876032 L34.209662,16.2638929 C34.1356412,16.2607864 34.0616204,16.2569896 33.9868365,16.2569896 Z M29.6009128,18.6051563 C29.7367448,18.669012 29.8611303,18.7418421 29.9618596,18.8336564 C30.2873222,19.1294639 30.3743158,19.5112179 30.3968273,19.8909009 L31.4014499,19.8909009 C31.6826527,19.2264557 32.266425,18.6983512 33.0005283,18.4443087 L33.0005283,16.3484587 C31.5697137,16.6111303 30.3140308,17.4329714 29.6009128,18.6051563 Z M29.5223134,23.1537583 L28.7706588,23.1537583 C28.5600429,23.1537583 28.3891082,22.9991238 28.3891082,22.808592 C28.3891082,22.6180602 28.5600429,22.4634256 28.7706588,22.4634256 L29.6409756,22.4634256 L29.6409756,21.9035658 L28.7702772,21.9035658 C28.5596613,21.9035658 28.3887266,21.7489313 28.3887266,21.5583995 C28.3887266,21.3678677 28.5596613,21.2132331 28.7702772,21.2132331 L29.6409756,21.2132331 L29.6409756,20.6085017 L28.7698957,20.6085017 C28.5592797,20.6085017 28.3883451,20.4538672 28.3883451,20.2633354 C28.3883451,20.0728035 28.5592797,19.918169 28.7698957,19.918169 L29.6306737,19.918169 C29.6146486,19.6720654 29.568481,19.4556461 29.4200578,19.3203409 C29.2372951,19.1543159 28.8790191,19.0697502 28.3547686,19.0697502 C27.8305182,19.0697502 27.4722422,19.1539707 27.2894795,19.3203409 C27.0639831,19.5257149 27.0662724,19.909885 27.0685617,20.3161458 L27.0689433,22.6719061 C27.0689433,23.3132252 27.6458477,23.8351167 28.3547686,23.8351167 C28.874059,23.8354619 29.3193285,23.5548416 29.5223134,23.1537583 Z M37.8599563,23.649072 C37.8698766,23.6380267 37.883994,23.6328492 37.8946774,23.6231846 C37.7084807,23.3442902 37.5951602,23.0212145 37.5951602,22.6722513 L37.5951602,22.3370948 L36.1559515,22.3370948 C35.6481077,22.9159387 34.8655475,23.2890635 33.9868365,23.2890635 C33.1081256,23.2890635 32.3251838,22.9159387 31.81734,22.3364044 C31.8165769,22.3364044 31.8158138,22.3367496 31.8150507,22.3367496 L30.4044583,22.3367496 L30.4044583,22.6719061 C30.4044583,23.0232855 30.2896116,23.3487773 30.1011256,23.6290524 C31.0569097,24.6963067 32.4667391,25.3093221 33.9868365,25.3093221 C35.4928166,25.3096673 36.9045537,24.7042455 37.8599563,23.649072 Z M39.6440867,23.8354619 C40.3530076,23.8354619 40.9299121,23.3135703 40.9299121,22.6722513 L40.9302936,20.316491 C40.932583,19.909885 40.9348723,19.5257149 40.7093759,19.3203409 C40.5266132,19.1543159 40.1683372,19.0697502 39.6440867,19.0697502 C39.1198362,19.0697502 38.7615602,19.1539707 38.5787975,19.3203409 C38.4299928,19.4556461 38.3838252,19.6720654 38.3681816,19.9178239 L39.2289597,19.9178239 C39.4395756,19.9178239 39.6105103,20.0724584 39.6105103,20.2629902 C39.6105103,20.453522 39.4395756,20.6081565 39.2289597,20.6081565 L38.3578798,20.6081565 L38.3578798,21.212888 L39.2289597,21.212888 C39.4395756,21.212888 39.6105103,21.3675225 39.6105103,21.5580543 C39.6105103,21.7485861 39.4395756,21.9032207 39.2289597,21.9032207 L38.3582613,21.9032207 L38.3582613,22.4630805 L39.2289597,22.4630805 C39.4395756,22.4630805 39.6105103,22.617715 39.6105103,22.8082468 C39.6105103,22.9987786 39.4395756,23.1534132 39.2289597,23.1534132 L38.4773051,23.1534132 C38.68029,23.5548416 39.1255595,23.8354619 39.6440867,23.8354619 Z M34.209662,8.63916841 L34.209662,10.3114993 L33.3820789,10.3114993 C33.171463,10.3114993 33.0005283,10.4661339 33.0005283,10.6566657 C33.0005283,10.8471975 33.171463,11.001832 33.3820789,11.001832 L34.5912126,11.001832 C34.8018285,11.001832 34.9727632,10.8471975 34.9727632,10.6566657 L34.9727632,8.63916841 C34.9727632,8.44863659 34.8018285,8.29400207 34.5912126,8.29400207 C34.3805967,8.29400207 34.209662,8.44863659 34.209662,8.63916841 Z M27.859516,5.83883387 C27.859516,3.40368531 27.8633315,0.89398083 32.6105836,0.500491198 C32.6735395,0.221251626 33.2645613,0 33.9868365,0 C34.7091117,0 35.3001335,0.221251626 35.3634709,0.500146032 C40.1103415,0.893635664 40.114157,3.40334015 40.114157,5.8384887 C40.114157,6.02902052 39.9432223,6.18365505 39.7326064,6.18365505 L28.2410666,6.18365505 C28.0304507,6.18400021 27.859516,6.02936569 27.859516,5.83883387 Z M28.6229987,5.49366753 L39.3506743,5.49366753 C39.340754,3.031596 39.114113,1.13559727 33.9868365,1.13559727 C28.85956,1.13559727 28.632919,3.031596 28.6229987,5.49366753 Z M34.6782061,3.92419616 L33.2954669,3.92419616 C32.5781518,3.92419616 31.9913271,4.33149245 31.9913271,4.82956748 L35.9827275,4.82956748 C35.9823459,4.33149245 35.3955212,3.92419616 34.6782061,3.92419616 Z M36.8564783,15.2746462 C36.7668139,15.4472294 36.8488473,15.6526034 37.0396226,15.7337174 L38.8630527,16.5079256 C38.914562,16.529671 38.9698869,16.5407164 39.0252117,16.5407164 C39.0923646,16.5407164 39.1595175,16.5248387 39.2190394,16.4927382 C39.3277813,16.4347503 39.397605,16.3318907 39.4059991,16.2179858 L39.5502253,14.2308632 C39.5639611,14.0406765 39.4048545,13.8763773 39.1942386,13.8639514 C38.9840042,13.852906 38.8023862,13.9958049 38.7886503,14.1859916 L38.6810531,15.668481 L37.363559,15.1089664 C37.1731653,15.0278523 36.9461427,15.1017179 36.8564783,15.2746462 Z M30.6097325,15.1089664 L29.2926199,15.668481 L29.1850227,14.1859916 C29.1709053,13.9958049 28.9869979,13.8501447 28.7794344,13.8639514 C28.5692001,13.8767225 28.4097119,14.0410217 28.4234477,14.2308632 L28.5676739,16.2179858 C28.576068,16.3318907 28.6458917,16.4347503 28.7546336,16.4927382 C28.8141555,16.5244935 28.8813084,16.5407164 28.9484613,16.5407164 C29.0037862,16.5407164 29.059111,16.5300162 29.1106203,16.5079256 L30.9340505,15.7337174 C31.1248257,15.6526034 31.2068591,15.4472294 31.1171947,15.2746462 C31.0275303,15.102063 30.8001262,15.0281974 30.6097325,15.1089664 Z M27.0685617,6.99099912 C27.0685617,6.8004673 26.8980086,6.64617795 26.6873927,6.64617795 C26.6305417,6.64617795 21,6.70623689 21,11.908584 L21,25.0794414 C21,25.2699732 21.1709347,25.4246077 21.3815506,25.4246077 C21.5921665,25.4246077 21.7631011,25.2699732 21.7631011,25.0794414 L21.7631011,11.908584 C21.7631011,7.40278257 26.4870786,7.3368558 26.6881558,7.33651063 C26.8983902,7.3358203 27.0689433,7.18118578 27.0685617,6.99099912 Z M41.3126073,6.64617795 C41.1019914,6.64617795 40.9310567,6.80081247 40.9310567,6.99134429 C40.9310567,7.18187611 41.1019914,7.33651063 41.3126073,7.33651063 C41.5136845,7.33651063 46.2368989,7.38828559 46.2368989,11.908584 L46.2368989,25.0794414 C46.2368989,25.2699732 46.4078335,25.4246077 46.6184494,25.4246077 C46.8290653,25.4246077 47,25.2699732 47,25.0794414 L47,11.908584 C46.9996184,6.70658206 41.3694583,6.64617795 41.3126073,6.64617795 Z" id="Shape"></path>
        </g>
    </g>
</svg>