<?xml version="1.0" encoding="UTF-8"?>
<svg width="34px" height="26px" viewBox="0 0 34 26" version="1.1" xmlns="http://www.w3.org/2000/svg" xmlns:xlink="http://www.w3.org/1999/xlink">
    <defs></defs>
    <g id="Symbols" stroke="none" stroke-width="1" fill="none" fill-rule="evenodd">
        <g id="Navigation-/-Left-Icons-/-Link-6-/-InActive" transform="translate(-17.000000, 0.000000)" fill="#9B9B9B" fill-rule="nonzero">
            <path d="M44.7942569,8.11227624 L42.7903211,2.3810302 C42.6403961,1.95214167 42.2368943,1.66400166 41.7863652,1.66400166 L26.2137719,1.66400166 C25.7631742,1.66400166 25.3597409,1.95214167 25.209816,2.380961 L23.2058802,8.11227624 C23.0894775,8.44518729 23.3424374,8.8053623 23.6916454,8.8053623 L44.3084917,8.8053623 C44.4756234,8.8053623 44.6324037,8.723432 44.728926,8.5857282 C44.825517,8.4479552 44.8499218,8.27143138 44.7942569,8.11227624 Z M50.4849627,7.21069693 C50.7695254,7.21069693 51.0000685,7.44340943 51,7.73071907 L51,9.94941102 C51,10.2366515 50.7693883,10.4694332 50.4848256,10.4694332 L47.6393356,10.4694332 L49.39559,12.9512847 C49.7261517,13.4183704 49.9009613,13.9689089 49.9009613,14.5431129 L49.9009613,21.0427324 C49.9009613,21.9433429 49.4679132,22.7436857 48.8011001,23.2430869 C48.8013057,23.2491763 48.8019912,23.2551965 48.8019912,23.2613551 L48.8019912,24.9253568 C48.8019912,25.5178983 48.3244524,26 47.7373661,26 L44.4403873,26 C43.8533696,26 43.3757621,25.5179675 43.3757621,24.9253568 L43.3757621,23.7813773 L24.6242379,23.7813773 L24.6242379,24.9253568 C24.6242379,25.5178983 24.146699,26 23.5596127,26 L20.2626339,26 C19.6756162,26 19.1980087,25.5179675 19.1980087,24.9253568 L19.1980087,23.2613551 C19.1980087,23.2551965 19.1986943,23.2491763 19.1988999,23.2430869 C18.5320867,22.7436857 18.0990386,21.9433429 18.0990386,21.0427324 L18.0990386,14.5431129 C18.0990386,13.9689781 18.2737798,13.4184396 18.6043414,12.9512847 L20.3605958,10.4694332 L17.5151744,10.4694332 C17.2306802,10.4694332 17,10.2366515 17,9.94941102 L17,7.73071907 C17,7.44347863 17.2306802,7.21069693 17.5151744,7.21069693 L20.2627024,7.21069693 C20.499004,7.21069693 20.7050737,7.37303518 20.7624524,7.60457132 L21.1243427,9.06575396 L23.6553124,1.82723948 C24.0374258,0.734328009 25.0655808,0 26.2137719,0 L41.7863652,0 C42.9345563,0 43.9627113,0.734328009 44.3448247,1.82717029 L46.8758629,9.06568477 L47.2377532,7.60457132 C47.2950634,7.37310438 47.5011331,7.21069693 47.7375032,7.21069693 L50.4849627,7.21069693 Z M18.0303487,9.42931968 L20.1523324,9.42931968 L19.8604345,8.25067202 L18.0303487,8.25067202 L18.0303487,9.42931968 Z M23.5940262,24.9253568 L23.5940262,23.7813773 L20.8122218,23.7813773 L20.2283575,23.7813773 L20.2283575,24.9253568 C20.2283575,24.9444554 20.2437819,24.9600249 20.2627024,24.9600249 L23.5596813,24.9600249 C23.5786704,24.9600249 23.5940262,24.9444554 23.5940262,24.9253568 Z M47.7717796,24.9253568 L47.7717796,23.7813773 L47.1879153,23.7813773 L44.4061109,23.7813773 L44.4061109,24.9253568 C44.4061109,24.9444554 44.4215352,24.9600249 44.4404558,24.9600249 L47.7374347,24.9600249 C47.7563552,24.9600249 47.7717796,24.9444554 47.7717796,24.9253568 Z M47.1879839,22.741333 C47.9362378,22.741333 48.5716538,22.2457377 48.7897888,21.5626853 L19.2102797,21.5626853 C19.4284147,22.2457377 20.0638993,22.741333 20.8121532,22.741333 L47.1879839,22.741333 Z M38.4303624,17.1253706 L29.5697747,17.1253706 L29.5697747,18.3040183 L38.4303624,18.3040183 L38.4303624,17.1253706 Z M29.6507355,16.0853263 L38.3494701,16.0853263 C38.1313351,15.4022739 37.4958505,14.9066787 36.7475966,14.9066787 L31.252609,14.9066787 C30.5042866,14.9066787 29.8688706,15.4022739 29.6507355,16.0853263 Z M38.4303624,19.3439934 L29.5697747,19.3439934 L29.5697747,20.522641 L38.4303624,20.522641 L38.4303624,19.3439934 Z M24.4197448,7.76531802 L26.1813464,2.72708884 C26.186008,2.71373365 26.19965,2.70397675 26.2137033,2.70397675 L41.7863652,2.70397675 C41.8004186,2.70397675 41.8140606,2.71373365 41.8187907,2.72715804 L43.5803923,7.76531802 L24.4197448,7.76531802 Z M43.8910051,14.9760149 C45.7205424,14.9760149 47.1536389,15.9353745 47.1536389,17.1600388 C47.1536389,18.384703 45.7205424,19.3440626 43.8910051,19.3440626 C42.0614677,19.3440626 40.6283712,18.384703 40.6283712,17.1600388 C40.6283712,15.9353745 42.0614677,14.9760149 43.8910051,14.9760149 Z M43.8910051,18.3040183 C45.1686923,18.3040183 46.1233588,17.7000591 46.1233588,17.1600388 C46.1233588,16.6200184 45.1686923,16.0160592 43.8910051,16.0160592 C42.6132492,16.0160592 41.6586514,16.6200184 41.6586514,17.1600388 C41.6586514,17.7000591 42.6133178,18.3040183 43.8910051,18.3040183 Z M24.109132,14.9760149 C25.9386694,14.9760149 27.3717659,15.9353745 27.3717659,17.1600388 C27.3717659,18.384703 25.9386694,19.3440626 24.109132,19.3440626 C22.2795946,19.3440626 20.8464982,18.384703 20.8464982,17.1600388 C20.8464982,15.9353745 22.2795946,14.9760149 24.109132,14.9760149 Z M24.109132,18.3040183 C25.3868193,18.3040183 26.3414857,17.7000591 26.3414857,17.1600388 C26.3414857,16.6200184 25.3868193,16.0160592 24.109132,16.0160592 C22.8314448,16.0160592 21.8767783,16.6200184 21.8767783,17.1600388 C21.8767783,17.7000591 22.8315133,18.3040183 24.109132,18.3040183 Z M48.5573948,13.5557283 L46.3733708,10.469364 L42.7919664,10.469364 C42.5074037,10.469364 42.276792,10.2365823 42.276792,9.94934182 C42.276792,9.66210138 42.5074037,9.42931968 42.7919664,9.42931968 L45.9103652,9.42931968 L43.3733628,2.17329813 C43.1362386,1.4954356 42.4985604,1.03997509 41.7864338,1.03997509 L26.2137719,1.03997509 C25.5015767,1.03997509 24.8638985,1.4955048 24.6268429,2.17329813 L22.0897719,9.42931968 L40.5939577,9.42931968 C40.8785204,9.42931968 41.109132,9.66210138 41.109132,9.94934182 C41.109132,10.2365823 40.8785204,10.469364 40.5939577,10.469364 L21.6267662,10.469364 L19.4427423,13.5557283 C19.2377008,13.8454598 19.1293188,14.1868822 19.1293188,14.5430437 L19.1293188,20.5227102 L28.5394945,20.5227102 L28.5394945,16.6053485 C28.5394945,15.0953121 29.7565811,13.8667036 31.252609,13.8667036 L36.7475966,13.8667036 C38.243556,13.8667036 39.4607112,15.0952429 39.4607112,16.6053485 L39.4607112,20.5227102 L48.8708183,20.5227102 L48.8708183,14.5430437 C48.8708183,14.1868822 48.7624363,13.8454598 48.5573948,13.5557283 Z M49.9697884,9.42931968 L49.9697884,8.25067202 L48.139634,8.25067202 L47.8477361,9.42931968 L49.9697884,9.42931968 Z M25.7576215,13.3120133 C26.0421156,13.3120133 26.2727958,13.544795 26.2727958,13.8320354 C26.2727958,14.1192759 26.0421156,14.3520576 25.7576215,14.3520576 L22.4606426,14.3520576 C22.1761485,14.3520576 21.9454683,14.1192759 21.9454683,13.8320354 C21.9454683,13.544795 22.1761485,13.3120133 22.4606426,13.3120133 L25.7576215,13.3120133 Z M45.5394945,13.3120133 C45.8240572,13.3120133 46.0546688,13.544795 46.0546688,13.8320354 C46.0546688,14.1192759 45.8240572,14.3520576 45.5394945,14.3520576 L42.2425156,14.3520576 C41.9579529,14.3520576 41.7273413,14.1192759 41.7273413,13.8320354 C41.7273413,13.544795 41.9579529,13.3120133 42.2425156,13.3120133 L45.5394945,13.3120133 Z" id="Combined-Shape"></path>
        </g>
    </g>
</svg>