<?xml version="1.0" encoding="UTF-8"?>
<svg width="26px" height="26px" viewBox="0 0 26 26" version="1.1" xmlns="http://www.w3.org/2000/svg" xmlns:xlink="http://www.w3.org/1999/xlink">
    <defs></defs>
    <g id="Symbols" stroke="none" stroke-width="1" fill="none" fill-rule="evenodd">
        <g id="Navigation-/-Left-Icons-/-Link-7-/-InActive" transform="translate(-21.000000, 0.000000)" fill="#9B9B9B">
            <path d="M34,25.0188679 C27.3727657,25.0188679 21.9811321,19.6272343 21.9811321,13 C21.9811321,6.37276567 27.3727657,0.981132075 34,0.981132075 C40.6272343,0.981132075 46.0188679,6.37276567 46.0188679,13 C46.0188679,19.6272343 40.6272343,25.0188679 34,25.0188679 Z M43.1923711,3.80762891 C40.7369961,1.35220312 37.4724219,0 34,0 C30.5275781,0 27.2630039,1.35220312 24.8076289,3.80762891 C22.3522031,6.26300391 21,9.52757812 21,13 C21,16.4724219 22.3522031,19.7369961 24.8076289,22.1923711 C27.2630039,24.6477969 30.5275781,26 34,26 C37.4724219,26 40.7369961,24.6477969 43.1923711,22.1923711 C45.6477969,19.7369961 47,16.4724219 47,13 C47,9.52757812 45.6477969,6.26300391 43.1923711,3.80762891 Z M34.5137552,23.0566038 L34.5137552,20.5008258 C34.5137552,20.2170788 34.283747,19.9870706 34,19.9870706 C33.716253,19.9870706 33.4862448,20.2170788 33.4862448,20.5008258 L33.4862448,23.0566038 C28.3418086,22.7967978 24.2032022,18.6581914 23.9433962,13.5137552 L26.4991742,13.5137552 C26.7829212,13.5137552 27.0129294,13.283747 27.0129294,13 C27.0129294,12.716253 26.7829212,12.4862448 26.4991742,12.4862448 L23.9433962,12.4862448 C24.2032022,7.34180856 28.3418086,3.20320223 33.4862448,2.94339623 L33.4862448,5.49917418 C33.4862448,5.78292118 33.716253,6.01292938 34,6.01292938 C34.283747,6.01292938 34.5137552,5.78292118 34.5137552,5.49917418 L34.5137552,2.94339623 C39.6581914,3.20320223 43.7967978,7.34180856 44.0566038,12.4862448 L41.5008258,12.4862448 C41.2170788,12.4862448 40.9870706,12.716253 40.9870706,13 C40.9870706,13.283747 41.2170788,13.5137552 41.5008258,13.5137552 L44.0566038,13.5137552 C43.7967978,18.6581914 39.6581914,22.7967978 34.5137552,23.0566038 Z M41.8048546,5.19514544 C39.7201022,3.11039308 36.9483019,1.96226415 34,1.96226415 C31.0516981,1.96226415 28.2798978,3.11039308 26.1951454,5.19514544 C24.1103931,7.2798978 22.9622642,10.0516981 22.9622642,13 C22.9622642,15.9483019 24.1103931,18.7201022 26.1951454,20.8048546 C28.2798978,22.8896069 31.0516981,24.0377358 34,24.0377358 C36.9483019,24.0377358 39.7201022,22.8896069 41.8048546,20.8048546 C43.8896069,18.7201022 45.0377358,15.9483019 45.0377358,13 C45.0377358,10.0516981 43.8896069,7.2798978 41.8048546,5.19514544 Z M33.754717,13.245283 C33.4842189,13.245283 33.2641509,13.0252151 33.2641509,12.754717 C33.2641509,12.4842189 33.4842189,12.2641509 33.754717,12.2641509 C34.0252151,12.2641509 34.245283,12.4842189 34.245283,12.754717 C34.245283,13.0252151 34.0252151,13.245283 33.754717,13.245283 Z M35.6978966,10.5040269 C35.8321208,10.5041264 35.9664991,10.5500247 36.0609798,10.6417216 C36.2558463,10.830691 36.256976,11.1560609 36.0609285,11.3460756 C36.0588232,11.3481167 35.2937861,12.0896074 35.2937861,12.0896074 C35.3901667,12.2845506 35.4442877,12.5027415 35.4442877,12.7329795 C35.4442877,13.5564599 34.7532434,14.2264151 33.9038412,14.2264151 C33.054439,14.2264151 32.3633947,13.5564599 32.3633947,12.7329795 C32.3633947,12.5026917 32.4175158,12.2844012 32.5139991,12.0894083 L28.5086841,8.20632644 C28.3084261,8.01217981 28.3084261,7.69656709 28.5086841,7.50242046 C28.7064261,7.31071311 29.0365951,7.31031486 29.2347479,7.50242046 C29.2391125,7.50665186 33.2400628,11.3855023 33.2400628,11.3855023 C33.4411425,11.2920133 33.6663044,11.2395439 33.9038412,11.2395439 C34.1413781,11.2395439 34.3664887,11.2920133 34.567671,11.3855521 L35.334916,10.6416719 C35.4291914,10.5497758 35.5635183,10.5039273 35.6978966,10.5040269 Z M37.1886792,9.32075472 C37.4596189,9.32075472 37.6792453,9.54038113 37.6792453,9.81132075 C37.6792453,10.0822604 37.4596189,10.3018868 37.1886792,10.3018868 C36.9177396,10.3018868 36.6981132,10.0822604 36.6981132,9.81132075 C36.6981132,9.54038113 36.9177396,9.32075472 37.1886792,9.32075472 Z" id="Fill-1"></path>
        </g>
    </g>
</svg>