<?xml version="1.0" encoding="UTF-8"?>
<svg width="24px" height="26px" viewBox="0 0 24 26" version="1.1" xmlns="http://www.w3.org/2000/svg" xmlns:xlink="http://www.w3.org/1999/xlink">
    <defs></defs>
    <g id="Symbols" stroke="none" stroke-width="1" fill="none" fill-rule="evenodd">
        <g id="Navigation-/-Left-Icons-/-Link-1-/-InActive" transform="translate(-22.000000, 0.000000)" fill="#9B9B9B">
            <path d="M45.4849799,0 L22.5150201,0 C22.2306002,0 22,0.231901236 22,0.517925708 L22,25.4820743 C22,25.7680988 22.2306002,26 22.5150201,26 L45.4849799,26 C45.7693998,26 46,25.7680988 46,25.4820743 L46,0.517925708 C46,0.231901236 45.7693998,0 45.4849799,0 Z M23.0300402,24.9641486 L44.9699598,24.9641486 L44.9699598,1.03585142 L23.0300402,1.03585142 L23.0300402,24.9641486 Z M28.1546187,8.6752556 C29.6453443,8.6752556 30.8584741,7.45554056 30.8584741,5.95614564 C30.8584741,4.45675071 29.6453443,3.23703567 28.1546187,3.23703567 C26.6635712,3.23703567 25.4507633,4.45675071 25.4507633,5.95614564 C25.4507633,7.45554056 26.6635712,8.6752556 28.1546187,8.6752556 Z M28.1546187,4.27288709 C29.0775347,4.27288709 29.8284339,5.02802277 29.8284339,5.95614564 C29.8284339,6.8842685 29.0775347,7.63940419 28.1546187,7.63940419 C27.2317027,7.63940419 26.4808034,6.8842685 26.4808034,5.95614564 C26.4808034,5.02802277 27.2317027,4.27288709 28.1546187,4.27288709 Z M28.1546187,15.7709673 C29.4692718,15.7709673 30.5672302,14.8220626 30.8086459,13.569783 L38.1715661,13.569783 C38.4559859,13.569783 38.6865861,13.3378818 38.6865861,13.0518573 C38.6865861,12.7655739 38.4559859,12.5339316 38.1715661,12.5339316 L30.8086459,12.5339316 C30.5672302,11.2813283 29.4692718,10.3327473 28.1546187,10.3327473 C26.6635712,10.3327473 25.4507633,11.5523976 25.4507633,13.0518573 C25.4507633,14.5509933 26.6635712,15.7709673 28.1546187,15.7709673 Z M28.1546187,11.3685988 C29.0775347,11.3685988 29.8284339,12.1237344 29.8284339,13.0518573 C29.8284339,13.9799154 29.0775347,14.7351159 28.1546187,14.7351159 C27.2317027,14.7351159 26.4808034,13.9799154 26.4808034,13.0518573 C26.4808034,12.1237344 27.2317027,11.3685988 28.1546187,11.3685988 Z M28.1546187,22.7629643 C29.4692718,22.7629643 30.5672302,21.8140597 30.8086459,20.5617801 L42.0342166,20.5617801 C42.3186365,20.5617801 42.5492367,20.3298788 42.5492367,20.0438544 C42.5492367,19.7575709 42.3186365,19.5259287 42.0342166,19.5259287 L30.8086459,19.5259287 C30.5672302,18.2733253 29.4692718,17.3247444 28.1546187,17.3247444 C26.6635712,17.3247444 25.4507633,18.5443947 25.4507633,20.0438544 C25.4507633,21.5429903 26.6635712,22.7629643 28.1546187,22.7629643 Z M28.1546187,18.3605958 C29.0775347,18.3605958 29.8284339,19.1157315 29.8284339,20.0438544 C29.8284339,20.9719125 29.0775347,21.7271129 28.1546187,21.7271129 C27.2317027,21.7271129 26.4808034,20.9719125 26.4808034,20.0438544 C26.4808034,19.1157315 27.2317027,18.3605958 28.1546187,18.3605958 Z M32.7122889,6.47407134 C32.427869,6.47407134 32.1972688,6.24217011 32.1972688,5.95614564 C32.1972688,5.67012116 32.427869,5.43821993 32.7122889,5.43821993 L42.0342166,5.43821993 C42.3186365,5.43821993 42.5492367,5.67012116 42.5492367,5.95614564 C42.5492367,6.24217011 42.3186365,6.47407134 42.0342166,6.47407134 L32.7122889,6.47407134 Z M42.0342166,12.5339316 C42.3186365,12.5339316 42.5492367,12.7655739 42.5492367,13.0518573 C42.5492367,13.3378818 42.3186365,13.569783 42.0342166,13.569783 L40.1288355,13.569783 C39.8441581,13.569783 39.6138154,13.3378818 39.6138154,13.0518573 C39.6138154,12.7655739 39.8441581,12.5339316 40.1288355,12.5339316 L42.0342166,12.5339316 Z" id="Fill-1"></path>
        </g>
    </g>
</svg>