<?xml version="1.0" encoding="UTF-8"?>
<svg width="26px" height="26px" viewBox="0 0 26 26" version="1.1" xmlns="http://www.w3.org/2000/svg" xmlns:xlink="http://www.w3.org/1999/xlink">
    <defs></defs>
    <g id="Symbols" stroke="none" stroke-width="1" fill="none" fill-rule="evenodd">
        <g id="Navigation-/-Left-Icons-/-Link-4-/-InActive" transform="translate(-21.000000, 0.000000)" fill="#9B9B9B">
            <path d="M42.5312571,24.984619 L45.9843651,24.984619 L45.9843651,20.0080587 L42.5312571,20.0080587 L42.5312571,24.984619 Z M22.0156349,20.0080587 L23.8790203,20.0080587 C24.1492808,20.9425951 24.8189904,22.1014854 25.8801258,23.4680221 C26.333099,24.0513521 26.7827205,24.5765369 27.1469272,24.984619 L22.0156349,24.984619 L22.0156349,20.0080587 Z M22.0156349,12.4924618 L25.4687429,12.4924618 L25.4687429,7.00808406 L22.0156349,7.00808406 L22.0156349,12.4924618 Z M28.3125206,24.7585894 C27.0634928,23.4220647 24.7577984,20.6442016 24.7577984,19.1404525 C24.7577984,17.1836795 26.3524468,15.591621 28.3125206,15.591621 C30.2725437,15.591621 31.8671921,17.1836795 31.8671921,19.1404525 C31.8671921,20.6441508 29.5615485,23.4220139 28.3125206,24.7585894 Z M36.8173967,1.01588883 C35.7816014,1.85338138 35.1180871,3.13287825 35.1180871,4.56446645 C35.1180871,5.60904696 35.8374105,7.06506118 37.2561002,8.89203606 C38.2785398,10.2088067 39.2848309,11.2305355 39.3271829,11.2733952 C39.422551,11.3699313 39.5526538,11.4243186 39.6883934,11.4243186 C39.824133,11.4243186 39.9542359,11.3699821 40.049604,11.2733952 C40.091956,11.2305355 41.0982978,10.2088067 42.1207375,8.89203606 C42.6521685,8.20765047 43.0853876,7.57541773 43.4194807,6.99731833 C43.453149,7.00432621 43.4879852,7.00813485 43.5236848,7.00813485 L45.9843143,7.00813485 L45.9843143,12.4925126 L42.5312064,12.4925126 L42.5312064,11.6285628 C42.5312064,11.348146 42.3038565,11.1207453 42.0233889,11.1207453 C41.7429213,11.1207453 41.5155714,11.348146 41.5155714,11.6285628 L41.5155714,12.4925126 L39.6875809,12.4925126 C39.4071134,12.4925126 39.1798143,12.7199133 39.1798143,13.0002793 C39.1798143,13.2806961 39.4071134,13.5080968 39.6875809,13.5080968 L41.5155714,13.5080968 L41.5155714,14.4724421 C41.5155714,14.7528589 41.7429213,14.9802596 42.0233889,14.9802596 C42.3038565,14.9802596 42.5312064,14.7528589 42.5312064,14.4724421 L42.5312064,13.5080968 L45.9843143,13.5080968 L45.9843143,18.9924745 L42.5312064,18.9924745 L42.5312064,18.128677 C42.5312064,17.848311 42.3038565,17.6209104 42.0233889,17.6209104 C41.7429213,17.6209104 41.5155714,17.848311 41.5155714,18.128677 L41.5155714,18.9924745 L41.3022881,18.9924745 C41.0218205,18.9924745 40.7944706,19.2198752 40.7944706,19.500292 C40.7944706,19.7807088 41.0218205,20.0081095 41.3022881,20.0081095 L41.5155714,20.0081095 L41.5155714,24.9846698 L29.4780633,24.9846698 C29.8422699,24.5765877 30.2918915,24.0514028 30.7448647,23.4680729 C32.1635543,21.6410981 32.8828778,20.1851346 32.8828778,19.1405033 C32.8828778,16.6236584 30.8326156,14.5760369 28.3125714,14.5760369 C25.8420903,14.5760369 23.8234651,16.5438803 23.7449057,18.9924745 L22.0156349,18.9924745 L22.0156349,13.5080968 L25.4687429,13.5080968 L25.4687429,13.8127872 C25.4687429,14.093204 25.6960927,14.3206047 25.9765603,14.3206047 C26.2570279,14.3206047 26.4843778,14.093204 26.4843778,13.8127872 L26.4843778,13.5080968 L28.6673327,13.5080968 C28.9477495,13.5080968 29.1750994,13.2806961 29.1750994,13.0002793 C29.1750994,12.7199133 28.9477495,12.4925126 28.6673327,12.4925126 L26.4843778,12.4925126 L26.4843778,7.00813485 L27.3450776,7.00813485 C27.6255452,7.00813485 27.852895,6.78073419 27.852895,6.50031739 C27.852895,6.21990058 27.6255452,5.99249993 27.3450776,5.99249993 L26.4843778,5.99249993 L26.4843778,4.01150402 C26.4843778,3.73108722 26.2570279,3.50368656 25.9765603,3.50368656 C25.6960927,3.50368656 25.4687429,3.73108722 25.4687429,4.01150402 L25.4687429,5.99249993 L22.0156349,5.99249993 L22.0156349,1.01588883 L36.8173967,1.01593961 L36.8173967,1.01588883 Z M39.6785926,1.01588883 L39.6981435,1.01588883 C41.6536978,1.02122091 43.2430649,2.61089268 43.2430649,4.56446645 C43.2430649,6.06816473 40.9373705,8.84602779 39.6883427,10.1826033 C38.4393656,8.84607857 36.1336712,6.06821551 36.1336712,4.56446645 C36.133722,2.61089268 37.7230891,1.02122091 39.6785926,1.01588883 Z M45.9843651,1.01588883 L45.9843651,5.99244915 L43.9228801,5.99244915 C44.1460659,5.45401029 44.2587506,4.97701735 44.2587506,4.56446645 C44.2587506,3.13287825 43.5952363,1.85338138 42.559441,1.01588883 L45.9843651,1.01588883 Z M46.4921825,0.00025390873 L39.7079444,0.00025390873 C39.7013936,0.00025390873 39.6949443,0 39.6883934,0 C39.6818426,0 39.6753933,0.000203126984 39.6688425,0.00025390873 L21.5078175,0.00025390873 C21.2273499,0.00025390873 21,0.227654567 21,0.508071368 L21,25.4924364 C21,25.7728533 21.2273499,26.0002539 21.5078175,26.0002539 L46.4921825,26.0002539 C46.7726501,26.0002539 47,25.7728533 47,25.4924364 L47,0.508071368 C47,0.227603785 46.7726501,0.00025390873 46.4921825,0.00025390873 Z M28.3125206,20.3910038 C27.6186389,20.3910038 27.054149,19.8282913 27.054149,19.1366439 C27.054149,18.4449965 27.6186389,17.8823856 28.3125206,17.8823856 C29.0064024,17.8823856 29.5709939,18.4449965 29.5709939,19.1366439 C29.5709939,19.8282913 29.0064024,20.3910038 28.3125206,20.3910038 Z M28.3125206,16.8667507 C27.0586178,16.8667507 26.038514,17.885077 26.038514,19.1366439 C26.038514,20.3883124 27.0586178,21.4066387 28.3125206,21.4066387 C29.5664235,21.4066387 30.5866288,20.3883124 30.5866288,19.1366439 C30.5866288,17.8850262 29.5664743,16.8667507 28.3125206,16.8667507 Z M39.6883934,3.30629791 C40.382326,3.30629791 40.9469175,3.86895966 40.9469175,4.56060704 C40.9469175,5.25225442 40.382326,5.81496694 39.6883934,5.81496694 C38.9945624,5.81496694 38.4300726,5.25225442 38.4300726,4.56060704 C38.4300726,3.86895966 38.9945624,3.30629791 39.6883934,3.30629791 Z M39.6883934,6.83065264 C38.4345414,6.83065264 37.4144376,5.81232629 37.4144376,4.56065782 C37.4144376,3.30904013 38.4345414,2.29076456 39.6883934,2.29076456 C40.9423979,2.29076456 41.9625524,3.30904013 41.9625524,4.56065782 C41.9625524,5.81232629 40.9423471,6.83065264 39.6883934,6.83065264 Z M33.1113448,5.06852606 C32.8308773,5.06852606 32.6035274,4.8411254 32.6035274,4.5607086 C32.6035274,4.2802918 32.8308773,4.05289114 33.1113448,4.05289114 L33.2382992,4.05289114 C33.5187668,4.05289114 33.7461167,4.2802918 33.7461167,4.5607086 C33.7461167,4.8411254 33.5187668,5.06852606 33.2382992,5.06852606 L33.1113448,5.06852606 Z M39.708046,17.8771551 C39.9845018,17.9243821 40.170363,18.1867206 40.123136,18.4631256 C40.1078507,18.552857 40.0899247,18.6431977 40.0698151,18.7317103 C40.016342,18.9674391 39.806918,19.1273001 39.5750486,19.1273001 C39.5378256,19.1273001 39.5000439,19.1231867 39.4622115,19.1146046 C39.1887518,19.0525493 39.0173127,18.7805623 39.079368,18.5070518 C39.095415,18.4362621 39.1097862,18.3639996 39.1220246,18.292245 C39.1692517,18.0157892 39.4311839,17.8296741 39.708046,17.8771551 Z M37.6275686,14.3897694 C37.4076837,14.2156896 37.3705114,13.8963232 37.544642,13.6764382 C37.7186711,13.4565025 38.0380883,13.4193303 38.2579732,13.5934101 C38.3288138,13.6494731 38.3994512,13.7085831 38.467905,13.7689626 C38.6781922,13.9545191 38.6982002,14.2754089 38.5126437,14.4856961 C38.4122482,14.5994473 38.2723445,14.6575416 38.131679,14.6575416 C38.0122911,14.6575416 37.8923954,14.6156974 37.7958593,14.5304856 C37.7409135,14.4819891 37.6842918,14.4346605 37.6275686,14.3897694 Z M38.9842538,16.3421244 C38.9619606,16.2729597 38.9374838,16.2034903 38.9114835,16.1355951 C38.8111896,15.8736628 38.9421557,15.5800428 39.2040879,15.479698 C39.4659694,15.3796072 39.7595894,15.5104718 39.8598834,15.7723025 C39.8923837,15.8572095 39.9230051,15.9441479 39.9508843,16.0306292 C40.0369086,16.2975888 39.8902001,16.583744 39.6232912,16.6697175 C39.5715446,16.6864247 39.5190363,16.6943466 39.4674421,16.6943466 C39.25294,16.6943466 39.0536216,16.5572867 38.9842538,16.3421244 Z M38.9181867,20.1961543 C39.1315208,20.3782576 39.1568101,20.6987412 38.974656,20.9121261 C38.9158507,20.9810369 38.8542017,21.0493892 38.791537,21.1154054 C38.6917001,21.2203713 38.5576363,21.2733367 38.4233694,21.2733367 C38.2976845,21.2733367 38.1718474,21.2270237 38.0735847,21.1335853 C37.8703054,20.9403607 37.8621295,20.6189631 38.0553541,20.415633 C38.1056788,20.3627184 38.1550894,20.3078741 38.2022656,20.2526236 C38.384369,20.0394418 38.7049034,20.0140509 38.9181867,20.1961543 Z M27.8047032,8.78041778 C27.8047032,8.75827694 27.8048555,8.7361361 27.8051602,8.71409682 C27.8090704,8.43368002 28.0379437,8.20800594 28.3199855,8.2133888 C28.6004023,8.21724822 28.824553,8.44779734 28.8206428,8.72821414 C28.8203889,8.74553072 28.8202873,8.76289808 28.8202873,8.78041778 C28.8202873,8.83546519 28.8215061,8.89091886 28.8238928,8.94525532 C28.836182,9.225469 28.61909,9.46261975 28.3389271,9.47490893 C28.3313099,9.47526441 28.3237434,9.47541675 28.3162277,9.47541675 C28.046018,9.47541675 27.821258,9.26248889 27.8092735,8.98989248 C27.8062266,8.92072774 27.8047032,8.85024268 27.8047032,8.78041778 Z M28.6503716,7.04713523 C28.4098692,6.9028135 28.33197,6.59086124 28.476241,6.35040967 C28.523468,6.27174875 28.5735896,6.19354486 28.6252346,6.11793084 C28.783369,5.88621373 29.0993838,5.82679909 29.3309485,5.98498423 C29.5625641,6.14316937 29.6220803,6.45908261 29.4638952,6.69074893 C29.4233713,6.75006201 29.3840663,6.81140636 29.3470464,6.87310618 C29.2518306,7.03174836 29.0836414,7.11965156 28.9111866,7.11965156 C28.822217,7.11965156 28.7321302,7.09624117 28.6503716,7.04713523 Z M30.7080987,5.48234651 C30.5188859,5.48234651 30.3372904,5.37616188 30.249895,5.19426166 C30.1285266,4.94136857 30.2351175,4.6380492 30.4879598,4.51668083 C30.5709372,4.47681716 30.6559459,4.43908632 30.740599,4.4043516 C31.0001953,4.29811619 31.2967099,4.42227756 31.4029961,4.68177228 C31.5093331,4.94131779 31.3851209,5.23788318 31.1255754,5.34422016 C31.0592545,5.37138839 30.9925781,5.40099415 30.9274759,5.43222492 C30.8566353,5.46624869 30.781783,5.48234651 30.7080987,5.48234651 Z M29.4063594,10.7832498 C29.4455122,10.8441879 29.4866962,10.9043643 29.5288958,10.9622047 C29.694038,11.1889452 29.6440688,11.506585 29.4173791,11.6716765 C29.3271907,11.7373881 29.2225295,11.7690759 29.1188332,11.7690759 C28.9619684,11.7690759 28.807338,11.6967119 28.7079581,11.5602105 C28.654231,11.4864247 28.6017227,11.4096935 28.5519566,11.3322513 C28.4003223,11.0963701 28.4687253,10.7821326 28.7046573,10.6305491 C28.9405385,10.4790672 29.2547251,10.5473178 29.4063594,10.7832498 Z M36.2011602,21.5357259 C36.2710866,21.5160734 36.3413686,21.4942372 36.4101271,21.4708269 C36.6754109,21.3801814 36.9641051,21.5221164 37.054649,21.7876034 C37.145142,22.0530396 37.0033086,22.3415815 36.7378217,22.4320745 C36.6517466,22.4614772 36.5637418,22.4888485 36.4761433,22.5134777 C36.4301858,22.5263762 36.3838729,22.5325716 36.3383724,22.5325716 C36.1165578,22.5325716 35.9128214,22.3861171 35.8498013,22.162068 C35.7738826,21.8921122 35.9312044,21.6116954 36.2011602,21.5357259 Z M31.2293226,12.2574947 C31.4919657,12.3557574 31.625217,12.6483618 31.5268528,12.9111066 C31.4505278,13.1150968 31.256897,13.2410356 31.0511802,13.2410356 C30.9920702,13.2410356 30.9319446,13.2306761 30.8732917,13.2086876 C30.7876229,13.1765935 30.7015986,13.1414526 30.6176564,13.1041788 C30.3613102,12.9905292 30.2456801,12.6905106 30.3594312,12.4341136 C30.4731824,12.1778181 30.7732517,12.0621881 31.0295472,12.1758884 C31.0951572,12.2049864 31.1623922,12.2324085 31.2293226,12.2574947 Z M33.2376898,12.4924618 L33.4842352,12.4924618 C33.7647028,12.4924618 33.9920019,12.7198625 33.9920019,13.0002793 C33.9920019,13.2806453 33.7647028,13.508046 33.4842352,13.508046 L33.2376898,13.508046 C32.9572222,13.508046 32.7298724,13.2806453 32.7298724,13.0002793 C32.7298724,12.7198625 32.9572222,12.4924618 33.2376898,12.4924618 Z M35.6342328,13.5437963 C35.3562027,13.506878 35.160693,13.2515982 35.1976113,12.9736189 C35.2345296,12.6955888 35.4898095,12.4997744 35.7678395,12.5370482 C35.8583834,12.5490835 35.9493335,12.5636578 36.0382523,12.580365 C36.3138956,12.632264 36.495288,12.8977002 36.4434399,13.1732927 C36.397584,13.4171467 36.1844022,13.5873163 35.9449663,13.5873163 C35.913837,13.5873163 35.8822508,13.5844217 35.8505122,13.5784295 C35.7794685,13.5650739 35.7066983,13.5533941 35.6342328,13.5437963 Z M33.4922079,22.196041 C33.4922079,21.9155734 33.7195578,21.6882235 34.0000254,21.6882235 L34.126929,21.6882235 C34.4073966,21.6882235 34.6347464,21.9156242 34.6347464,22.196041 C34.6347464,22.4764578 34.4073966,22.7038584 34.126929,22.7038584 L34.0000254,22.7038584 C33.7195578,22.7038584 33.4922079,22.4764578 33.4922079,22.196041 Z M42.0234397,16.7915937 C41.8898837,16.7915937 41.7588668,16.7372572 41.6644127,16.6428032 C41.5699587,16.5483491 41.5156222,16.4173322 41.5156222,16.2837762 C41.5156222,16.1497632 41.5699587,16.0192033 41.6644127,15.9247493 C41.7588668,15.8297874 41.8898837,15.7759587 42.0234397,15.7759587 C42.1569957,15.7759587 42.2880126,15.8297874 42.3824666,15.9247493 C42.4769207,16.0192033 42.5312571,16.1502202 42.5312571,16.2837762 C42.5312571,16.4173322 42.4769207,16.5483491 42.3824666,16.6428032 C42.2880126,16.7372572 42.1569957,16.7915937 42.0234397,16.7915937 Z M25.9765603,2.74196037 C25.8430043,2.74196037 25.7119874,2.68757312 25.6175334,2.59306829 C25.5230793,2.49866503 25.4687429,2.3676989 25.4687429,2.23414291 C25.4687429,2.10058692 25.5230793,1.96957002 25.6175334,1.87511597 C25.7119874,1.78061114 25.8430043,1.72632545 25.9765603,1.72632545 C26.1101163,1.72632545 26.2411332,1.78066192 26.3355873,1.87511597 C26.4300413,1.96957002 26.4843778,2.10058692 26.4843778,2.23414291 C26.4843778,2.3676989 26.4300413,2.49866503 26.3355873,2.59306829 C26.2411332,2.68757312 26.1101163,2.74196037 25.9765603,2.74196037 Z" id="Fill-1"></path>
        </g>
    </g>
</svg>