<?xml version="1.0" encoding="UTF-8"?>
<svg width="26px" height="26px" viewBox="0 0 26 26" version="1.1" xmlns="http://www.w3.org/2000/svg" xmlns:xlink="http://www.w3.org/1999/xlink">
    <defs></defs>
    <g id="Symbols" stroke="none" stroke-width="1" fill="none" fill-rule="evenodd">
        <g id="Navigation-/-Left-Icons-/-Link-3-/-InActive" transform="translate(-21.000000, 0.000000)" fill="#9B9B9B">
            <path d="M45.7173436,22.6828963 C45.5468203,22.8534196 45.3195744,22.9480249 45.0775512,22.9491421 C45.0760785,22.9491929 45.0745551,22.9491929 45.0730317,22.9491929 C44.8345632,22.9491929 44.6122938,22.8580914 44.4466963,22.6924432 L41.3045587,19.5503055 C41.7943434,19.1921965 42.2269992,18.7604547 42.5861239,18.271381 L45.7269412,21.4121983 C46.0745893,21.7599479 46.0703237,22.3299669 45.7173436,22.6828963 Z M41.6164569,24.9835386 C41.0003793,24.9835386 40.4991689,24.4823282 40.4991689,23.8662506 L40.4991689,23.4569541 C40.4991689,23.4403487 40.4982548,23.4239464 40.4966806,23.4077472 C40.4982548,23.391548 40.4991689,23.3751456 40.4991689,23.3585402 L40.4991689,22.2413537 C40.4991689,21.9609907 40.2718214,21.7335925 39.9914076,21.7335925 L28.006841,21.7335925 L28.006841,17.0585228 L28.9374573,16.1279065 L31.3822166,18.5727674 C31.4774314,18.6679822 31.6066188,18.7215055 31.7412905,18.7215055 C31.8759623,18.7215055 32.0051496,18.6679822 32.1003644,18.5727674 L32.8103364,17.8627446 C33.8468315,19.5531493 35.7116695,20.6832341 37.8356441,20.6832341 C38.7576783,20.6832341 39.6308611,20.4701054 40.4086768,20.0907699 L42.7336433,22.4156856 L42.7336433,23.8661998 C42.7336433,24.4823282 42.2324328,24.9835386 41.6164569,24.9835386 Z M25.2650115,23.8663522 L25.2650115,22.7492165 L39.4835956,22.7492165 L39.4835956,23.358591 C39.4835956,23.3751964 39.4845097,23.3915987 39.4860839,23.4077979 C39.4845097,23.4239971 39.4835956,23.4403995 39.4835956,23.4570049 L39.4835956,23.8663014 C39.4835956,24.2757502 39.599783,24.6584374 39.8006227,24.9835894 L26.3821472,24.9835894 C25.7661712,24.9835386 25.2650115,24.4823789 25.2650115,23.8663522 Z M37.327832,18.0079281 C37.327832,17.7274635 37.5551795,17.5001669 37.8356441,17.5001669 C39.328459,17.5001669 40.5429423,16.2856329 40.5429423,14.7928687 C40.5429423,14.5125057 40.7702897,14.2851074 41.0507543,14.2851074 C41.3312188,14.2851074 41.5585663,14.5125057 41.5585663,14.7928687 C41.5585663,16.845648 39.8884741,18.5157401 37.8356441,18.5157401 C37.5551795,18.5157401 37.327832,18.2883419 37.327832,18.0079281 Z M32.9608011,14.7928179 C32.9608011,12.1048166 35.1476427,9.91802568 37.8356441,9.91802568 C40.5236454,9.91802568 42.7104871,12.1048166 42.7104871,14.7928179 C42.7104871,17.48087 40.5236454,19.6676609 37.8356441,19.6676609 C35.989849,19.6676609 34.3804403,18.6364978 33.553113,17.1200188 L36.4877586,14.1853732 L36.4877586,15.3374463 C36.4877586,15.6178601 36.7151061,15.8452583 36.9955706,15.8452583 C37.2759844,15.8452583 37.5033319,15.6178601 37.5033319,15.3374463 L37.5033319,12.9003549 C37.5033319,12.6199411 37.2759844,12.3925428 36.9955706,12.3925428 L34.5583777,12.3925428 C34.2779131,12.3925428 34.0505656,12.6199411 34.0505656,12.9003549 C34.0505656,13.1807179 34.2779131,13.4081161 34.5583777,13.4081161 L35.8286694,13.4081161 L33.1385861,16.0981995 C33.0229065,15.6826061 32.9608011,15.2448214 32.9608011,14.7928179 Z M43.1280609,17.377124 C43.5107988,16.5964138 43.7261111,15.7193717 43.7261111,14.7928179 C43.7261111,11.5448015 41.0836605,8.90240165 37.8356948,8.90240165 C34.5877292,8.90240165 31.9452786,11.5448015 31.9452786,14.7928179 C31.9452786,15.5354422 32.0837589,16.2461759 32.3356845,16.9011518 L31.7412905,17.4955458 L29.2965311,15.0506848 C29.2013164,14.9554701 29.072129,14.9019467 28.9374573,14.9019467 C28.8027855,14.9019467 28.6735981,14.9554701 28.5783834,15.0506848 L28.006841,15.6222273 L28.006841,10.9852942 C28.006841,10.7048804 27.7795443,10.4774822 27.4990797,10.4774822 C27.2186151,10.4774822 26.9912677,10.7048804 26.9912677,10.9852942 L26.9912677,16.6378513 L22.3998854,21.2292844 C22.2015848,21.427585 22.2015848,21.7491316 22.3998854,21.9474829 C22.4990611,22.0466078 22.6290102,22.0962211 22.7589593,22.0962211 C22.8889084,22.0962211 23.0189082,22.0466078 23.1180331,21.9474829 L26.9912677,18.0741976 L26.9912677,21.7336941 L24.7571995,21.7336941 C24.4767857,21.7336941 24.2494383,21.9610923 24.2494383,22.2414553 L24.2494383,23.866403 C24.2494383,25.0424448 25.2061561,25.9991626 26.3821472,25.9991626 L41.6164569,25.9991626 C42.7924987,25.9991626 43.7492165,25.042394 43.7492165,23.8663014 L43.7492165,23.4303956 C44.1044818,23.7751999 44.5728368,23.9648169 45.0729301,23.9648169 C45.5939452,23.9622779 46.074437,23.7620984 46.4354405,23.4010948 C47.1844125,22.6521737 47.1887289,21.4378428 46.4450382,20.6941013 L43.1280609,17.377124 Z M23.0819785,8.73406196 L24.3006765,8.73406196 L24.3006765,7.00755189 L23.0819785,7.00755189 L23.0819785,8.73406196 Z M27.1443223,8.73406196 L28.3630203,8.73406196 L28.3630203,3.75765656 L27.1443223,3.75765656 L27.1443223,8.73406196 Z M31.2105762,8.73406196 L32.5269265,8.73406196 L32.5269265,5.83963504 L31.2105762,5.83963504 L31.2105762,8.73406196 Z M21.507812,9.74968599 C21.2273474,9.74968599 21,9.52228777 21,9.24187398 C21,8.96146018 21.2273474,8.73406196 21.507812,8.73406196 L22.0663544,8.73406196 L22.0663544,6.49979066 C22.0663544,6.21937687 22.2937019,5.99197865 22.5741665,5.99197865 L24.8084378,5.99197865 C25.0889023,5.99197865 25.3162498,6.21937687 25.3162498,6.49979066 L25.3162498,8.73406196 L26.128749,8.73406196 L26.128749,3.24989533 C26.128749,2.96948154 26.3560457,2.74208332 26.6365102,2.74208332 L28.8708323,2.74208332 C29.1512969,2.74208332 29.3786443,2.96948154 29.3786443,3.24989533 L29.3786443,8.73406196 L30.1950029,8.73406196 L30.1950029,5.33187381 C30.1950029,5.05146001 30.4223504,4.82406179 30.7028149,4.82406179 L33.0347385,4.82406179 C33.3152031,4.82406179 33.5425505,5.05146001 33.5425505,5.33187381 L33.5425505,8.73406196 L34.0059798,8.73406196 C34.2864443,8.73406196 34.5137918,8.96146018 34.5137918,9.24187398 C34.5137918,9.52228777 34.2864443,9.74968599 34.0059798,9.74968599 L21.507812,9.74968599 Z M38.6439284,3.24989533 C38.6439284,3.53030913 38.4166318,3.75765656 38.1361672,3.75765656 L34.2026553,3.75765656 C33.9222416,3.75765656 33.6948941,3.53030913 33.6948941,3.24989533 C33.6948941,2.96948154 33.9222416,2.74208332 34.2026553,2.74208332 L38.1361672,2.74208332 C38.4166318,2.74208332 38.6439284,2.96948154 38.6439284,3.24989533 Z M41.0071332,2.89082146 C41.1015863,2.98532527 41.1559221,3.11634077 41.1559221,3.24984455 C41.1559221,3.38339911 41.1015863,3.51441461 41.0071332,3.60881686 C40.9126802,3.70332068 40.7816647,3.75760578 40.6481101,3.75760578 C40.5145556,3.75760578 40.3835401,3.7032699 40.289087,3.60881686 C40.194634,3.51441461 40.1402981,3.38339911 40.1402981,3.24984455 C40.1402981,3.11628999 40.194634,2.98532527 40.289087,2.89082146 C40.3835401,2.79631764 40.5145556,2.74203253 40.6481101,2.74203253 C40.7816647,2.74203253 40.9126802,2.79636842 41.0071332,2.89082146 Z M35.3367519,4.9764054 L36.1694113,4.9764054 C36.4498759,4.9764054 36.6772233,5.20380362 36.6772233,5.48416663 C36.6772233,5.76458043 36.4498759,5.99197865 36.1694113,5.99197865 L35.3367519,5.99197865 C35.0562873,5.99197865 34.8289399,5.76458043 34.8289399,5.48416663 C34.8289399,5.20380362 35.0562873,4.9764054 35.3367519,4.9764054 Z M45.9835386,2.13275968 L45.9835386,6.19510345 L43.7492165,6.19510345 L43.7492165,2.13275968 C43.7492165,1.51673293 44.2503762,1.01557325 44.8663522,1.01557325 C45.4823789,1.01557325 45.9835386,1.51673293 45.9835386,2.13275968 Z M29.1240274,1.01557325 L43.0506195,1.01557325 C42.8498307,1.34072528 42.7336433,1.72336163 42.7336433,2.13275968 L42.7336433,8.78413223 C42.7336433,9.06454602 42.9609907,9.29194424 43.2414045,9.29194424 C43.5218691,9.29194424 43.7492165,9.06454602 43.7492165,8.78413223 L43.7492165,7.2106767 L46.4912999,7.2106767 C46.7717644,7.2106767 46.9991119,6.98327848 46.9991119,6.70291547 L46.9991119,2.13275968 C46.9991119,0.956717835 46.042394,0 44.8663522,0 C44.7736257,0 44.5061611,0 44.4601534,0 L29.1240274,0 C28.8435628,0 28.6162154,0.22739822 28.6162154,0.507812015 C28.6162154,0.788175028 28.8435628,1.01557325 29.1240274,1.01557325 Z" id="Fill-3"></path>
        </g>
    </g>
</svg>