<?xml version="1.0" encoding="UTF-8"?>
<svg width="20px" height="22px" viewBox="0 0 20 22" version="1.1" xmlns="http://www.w3.org/2000/svg" xmlns:xlink="http://www.w3.org/1999/xlink">
    <defs></defs>
    <g id="Business-Portal-(redesign)" stroke="none" stroke-width="1" fill="none" fill-rule="evenodd">
        <g id="Sign-in" transform="translate(-878.000000, -384.000000)" fill="#939393" fill-rule="nonzero">
            <path d="M885.883523,404.28125 L881.409091,404.28125 C880.469205,404.28125 879.704545,403.510219 879.704545,402.5625 L879.704545,395.515625 C879.704545,394.567906 880.469205,393.796875 881.409091,393.796875 L893.681818,393.796875 C894.621705,393.796875 895.386364,394.567906 895.386364,395.515625 L895.386364,396.417969 C895.386364,396.892602 895.767926,397.277344 896.238636,397.277344 C896.709347,397.277344 897.090909,396.892602 897.090909,396.417969 L897.090909,395.515625 C897.090909,393.620187 895.561591,392.078125 893.681818,392.078125 L892.657514,392.078125 L892.657514,389.047367 C892.657514,386.264238 890.363537,384 887.543878,384 C884.724219,384 882.430241,386.264238 882.430241,389.047367 L882.430241,392.078125 L881.409091,392.078125 C879.529318,392.078125 878,393.620187 878,395.515625 L878,402.5625 C878,404.457937 879.529318,406 881.409091,406 L885.883523,406 C886.354233,406 886.735795,405.615258 886.735795,405.140625 C886.735795,404.665992 886.354233,404.28125 885.883523,404.28125 Z M884.134787,389.047367 C884.134787,387.211957 885.664105,385.71875 887.543878,385.71875 C889.423651,385.71875 890.952969,387.211957 890.952969,389.047367 L890.952969,392.078125 L884.134787,392.078125 L884.134787,389.047367 Z M886.181818,399.583333 C885.679741,399.583333 885.272727,399.172928 885.272727,398.666667 C885.272727,398.160406 885.679741,397.75 886.181818,397.75 C886.683895,397.75 887.090909,398.160406 887.090909,398.666667 C887.090909,399.172928 886.683895,399.583333 886.181818,399.583333 Z M897.844308,401.386081 C898.051897,401.679424 898.051897,402.070576 897.844308,402.363961 C897.814206,402.40653 897.711011,402.551585 897.646867,402.631746 C897.360062,402.990068 896.688609,403.828804 895.754416,404.569305 C894.556626,405.518651 893.324066,406 892.090906,406 C890.857747,406 889.625144,405.518651 888.427397,404.569263 C887.493118,403.828719 886.821751,402.989983 886.535117,402.631831 C886.470973,402.55184 886.367607,402.406487 886.337419,402.363834 C886.129916,402.070491 886.129958,401.679339 886.337505,401.385996 C886.36765,401.343385 886.471016,401.198117 886.535374,401.117786 C886.821751,400.759974 887.493118,399.921238 888.42744,399.180695 C889.625144,398.231349 890.857747,397.75 892.090906,397.75 C893.324066,397.75 894.556668,398.231349 895.754416,399.18078 C896.688609,399.921238 897.360019,400.760017 897.646739,401.118169 C897.710925,401.19833 897.814206,401.343513 897.844308,401.386081 Z M892.090906,404.298969 C893.362903,404.298969 894.696132,403.483963 896.057835,401.875043 C894.696174,400.266207 893.362775,399.451031 892.090906,399.451031 C890.818867,399.451031 889.485638,400.266037 888.124021,401.875 C889.485724,403.484005 890.818953,404.298969 892.090906,404.298969 Z M882.545455,399.583333 C882.043378,399.583333 881.636364,399.172928 881.636364,398.666667 C881.636364,398.160406 882.043378,397.75 882.545455,397.75 C883.047532,397.75 883.454545,398.160406 883.454545,398.666667 C883.454545,399.172928 883.047532,399.583333 882.545455,399.583333 Z M892.090909,403.5 C891.337794,403.5 890.727273,402.828427 890.727273,402 C890.727273,401.171573 891.337794,400.5 892.090909,400.5 C892.844025,400.5 893.454545,401.171573 893.454545,402 C893.454545,402.828427 892.844025,403.5 892.090909,403.5 Z" id="Combined-Shape"></path>
        </g>
    </g>
</svg>