<?xml version="1.0" encoding="UTF-8"?>
<svg width="26px" height="26px" viewBox="0 0 26 26" version="1.1" xmlns="http://www.w3.org/2000/svg" xmlns:xlink="http://www.w3.org/1999/xlink">
    <defs></defs>
    <g id="Symbols" stroke="none" stroke-width="1" fill="none" fill-rule="evenodd">
        <g id="Navigation-/-Left-Icons-/-Link-8-/-InActive" transform="translate(-21.000000, 0.000000)" fill="#9B9B9B" fill-rule="nonzero">
            <path d="M33.9997593,6.25914335 C30.2827911,6.25914335 27.2591433,9.28279106 27.2591433,12.9997593 C27.2591433,16.7167275 30.2827911,19.7403752 33.9997593,19.7403752 C37.7167275,19.7403752 40.7403752,16.7167275 40.7403752,12.9997593 C40.7403752,9.28279106 37.7167275,6.25914335 33.9997593,6.25914335 Z M45.6610248,10.1109239 C46.3991222,10.1109239 46.9995185,10.7113202 47,11.4494176 L47,14.5501009 C47,15.2881984 46.3996037,15.8885947 45.6615063,15.8885947 L44.6898946,15.8885947 C44.4419363,16.8086887 44.0769801,17.689302 43.6017666,18.5159904 L44.2883465,19.2025703 C44.5411196,19.4558249 44.6802652,19.7918927 44.6802652,20.1491454 C44.6802652,20.5068795 44.5411196,20.8434288 44.2883465,21.0962019 L42.0962019,23.2883465 C41.5901743,23.7938927 40.7090795,23.7948557 40.2025703,23.2883465 L39.5159904,22.6017666 C38.689302,23.0774615 37.8086887,23.4419363 36.8885947,23.6898946 L36.8885947,24.6615063 C36.8885947,25.3996037 36.2881984,26 35.5501009,26 L32.4498991,26 C31.7118016,26 31.1114053,25.3996037 31.1114053,24.6615063 L31.1114053,23.6898946 C30.1913113,23.4419363 29.310698,23.0769801 28.4840096,22.6017666 L27.7974297,23.2883465 C27.291402,23.7948557 26.4093443,23.7943742 25.9037981,23.2883465 L23.7116535,21.0962019 C23.4588804,20.8429474 23.3197348,20.5068795 23.3197348,20.1491454 C23.3197348,19.7918927 23.4588804,19.4553434 23.7116535,19.2025703 L24.3982334,18.5159904 C23.9225385,17.689302 23.5580637,16.8086887 23.3101054,15.8885947 L22.3384937,15.8885947 C21.6003963,15.8885947 21,15.2881984 21,14.5496195 L21,11.4494176 C21,10.7113202 21.6003963,10.1109239 22.3384937,10.1109239 L23.3101054,10.1109239 C23.5575823,9.19034833 23.9225385,8.30925353 24.3977519,7.48400956 L23.711172,6.79742968 C23.4583989,6.54417511 23.3192533,6.20810726 23.3192533,5.85085461 C23.3192533,5.4931205 23.4583989,5.15657117 23.711172,4.90379808 L25.9033166,2.71165349 C26.4088628,2.20610729 27.2909205,2.20514435 27.7969482,2.71165349 L28.4835281,3.39823337 C29.3102165,2.92253847 30.1908298,2.55806374 31.1109239,2.31010537 L31.1109239,1.33849373 C31.1109239,0.600396289 31.7113202,1.86517468e-14 32.4494176,1.86517468e-14 L35.5501009,1.86517468e-14 C36.2881984,1.86517468e-14 36.8885947,0.600396289 36.8885947,1.33849373 L36.8885947,2.31010537 C37.8086887,2.55806374 38.689302,2.92253847 39.515509,3.39775189 L40.2020889,2.71117202 C40.708598,2.20514435 41.5901743,2.20610729 42.0957204,2.71117202 L44.287865,4.90331661 C44.5406381,5.15657117 44.6797837,5.49263903 44.6797837,5.85037314 C44.6797837,6.20762578 44.5406381,6.54417511 44.287865,6.7969482 L43.6012852,7.48352808 C44.0769801,8.30925353 44.4414548,9.19034833 44.6894132,10.1109239 L45.6610248,10.1109239 Z M33.9997593,18.77743 C30.8138553,18.77743 28.2220885,16.1856632 28.2220885,12.9997593 C28.2220885,9.8138553 30.8138553,7.22208848 33.9997593,7.22208848 C37.1856632,7.22208848 39.77743,9.8138553 39.77743,12.9997593 C39.77743,16.1856632 37.1856632,18.77743 33.9997593,18.77743 Z M46.0365734,14.5501009 L46.0365734,11.4494176 C46.0365734,11.2423844 45.868058,11.073869 45.6610248,11.073869 L43.9315753,11.073869 L43.8449103,10.7016907 C43.5945445,9.62367364 43.1713302,8.60150738 42.5868225,7.66311735 L42.384604,7.33860484 L43.6070628,6.116146 C43.753912,5.96977834 43.753912,5.73144942 43.6070628,5.58460029 L41.4149182,3.3924557 C41.2690321,3.24608804 41.0307031,3.24512509 40.8833725,3.3924557 L39.6609137,4.61491454 L39.3364012,4.41269606 C38.3970482,3.82818837 37.3748819,3.40545545 36.2978278,3.15460825 L35.9256495,3.06794319 L35.9256495,1.33849373 C35.9256495,1.13146053 35.7571341,0.962945131 35.5496195,0.962945131 L32.4494176,0.962945131 C32.2423844,0.962945131 32.073869,1.13146053 32.073869,1.33849373 L32.073869,3.06794319 L31.7016907,3.15460825 C30.6241551,3.40497398 29.6019889,3.82818837 28.6631173,4.41269606 L28.3386048,4.61491454 L27.116146,3.3924557 C26.9692969,3.24512509 26.7309679,3.24608804 26.5846003,3.3924557 L24.3924557,5.58460029 C24.2456066,5.73096795 24.2456066,5.96929686 24.3924557,6.116146 L25.6149145,7.33860484 L25.4126961,7.66311735 C24.8281884,8.60198885 24.4054555,9.62415511 24.1546082,10.7016907 L24.0679432,11.073869 L22.3384937,11.073869 C22.1314605,11.073869 21.9629451,11.2423844 21.9629451,11.4494176 L21.9629451,14.5501009 C21.9629451,14.7571341 22.1314605,14.9256495 22.3384937,14.9256495 L24.0679432,14.9256495 L24.1546082,15.2978278 C24.404974,16.3753634 24.8281884,17.3975297 25.4126961,18.3364012 L25.6149145,18.6609137 L24.3924557,19.8833725 C24.2456066,20.0297402 24.2456066,20.2680691 24.3924557,20.4149182 L26.5846003,22.6070628 C26.7304865,22.7534305 26.9688154,22.7543934 27.116146,22.6070628 L28.3386048,21.384604 L28.6631173,21.5868225 C29.6024703,22.1713302 30.6246366,22.5940631 31.7016907,22.8449103 L32.073869,22.9315753 L32.073869,24.6610248 C32.073869,24.868058 32.2423844,25.0365734 32.4494176,25.0365734 L35.5501009,25.0365734 C35.7571341,25.0365734 35.9256495,24.868058 35.9256495,24.6610248 L35.9256495,22.9315753 L36.2978278,22.8449103 C37.3753634,22.5945445 38.3975297,22.1713302 39.3364012,21.5868225 L39.6609137,21.384604 L40.8833725,22.6070628 C41.0302217,22.7543934 41.2685506,22.7534305 41.4149182,22.6070628 L43.6070628,20.4149182 C43.753912,20.2685506 43.753912,20.0302217 43.6070628,19.8833725 L42.384604,18.6609137 L42.5868225,18.3364012 C43.1713302,17.3970482 43.5940631,16.3748819 43.8449103,15.2978278 L43.9315753,14.9256495 L45.6610248,14.9256495 C45.868058,14.9256495 46.0365734,14.7571341 46.0365734,14.5501009 Z M33.9997593,8.18503361 C31.3449195,8.18503361 29.1850336,10.3449195 29.1850336,12.9997593 C29.1850336,15.654599 31.3449195,17.8144849 33.9997593,17.8144849 C36.654599,17.8144849 38.8144849,15.654599 38.8144849,12.9997593 C38.8144849,10.3449195 36.654599,8.18503361 33.9997593,8.18503361 Z M33.9997593,16.8515398 C31.8759838,16.8515398 30.1479787,15.1235347 30.1479787,12.9997593 C30.1479787,10.8759838 31.8759838,9.14797874 33.9997593,9.14797874 C36.1235347,9.14797874 37.8515398,10.8759838 37.8515398,12.9997593 C37.8515398,15.1235347 36.1235347,16.8515398 33.9997593,16.8515398 Z" id="Combined-Shape"></path>
        </g>
    </g>
</svg>