<?xml version="1.0" encoding="UTF-8"?>
<svg width="48px" height="59px" viewBox="0 0 48 59" version="1.1" xmlns="http://www.w3.org/2000/svg" xmlns:xlink="http://www.w3.org/1999/xlink">
    <defs></defs>
    <g id="Business-Portal-(redesign)" stroke="none" stroke-width="1" fill="none" fill-rule="evenodd">
        <g id="User-profile.-edit" transform="translate(-246.000000, -332.000000)" fill="#4A4A4A" fill-rule="nonzero">
            <path d="M293,338 C293.552,338 294,338.447 294,339 C294,339.553 293.552,340 293,340 L290.959,340 L289.043,386.042 C289.007,387.743 287.935,391 284.136,391 L255.864,391 C252.065,391 250.993,387.743 250.956,386.021 L249.041,340 L247,340 C246.448,340 246,339.553 246,339 C246,338.447 246.448,338 247,338 L260.043,338 C260.153,336.75 260.538,334.642 261.856,333.289 C262.69,332.434 263.748,332 265,332 L274.999,332 C276.251,332 277.309,332.434 278.143,333.289 C279.461,334.642 279.846,336.75 279.956,338 L293,338 Z M263.292,334.681 C262.488,335.504 262.165,336.952 262.053,338 L277.947,338 C277.835,336.952 277.512,335.504 276.707,334.681 C276.259,334.223 275.7,334 274.999,334 L265,334 C264.299,334 263.74,334.223 263.292,334.681 Z M270,383 C269.448,383 269,382.553 269,382 L269,349 C269,348.447 269.448,348 270,348 C270.552,348 271,348.447 271,349 L271,382 C271,382.553 270.552,383 270,383 Z M260,383 C259.448,383 259,382.553 259,382 L259,349 C259,348.447 259.448,348 260,348 C260.552,348 261,348.447 261,349 L261,382 C261,382.553 260.552,383 260,383 Z M280,383 C279.448,383 279,382.553 279,382 L279,349 C279,348.447 279.448,348 280,348 C280.552,348 281,348.447 281,349 L281,382 C281,382.553 280.552,383 280,383 Z M287.044,385.979 L288.957,340 L251.042,340 L252.955,385.958 C252.966,386.283 253.13,389 255.864,389 L284.136,389 C286.9,389 287.038,386.288 287.044,385.979 Z" id="Combined-Shape"></path>
        </g>
    </g>
</svg>