<svg xmlns="http://www.w3.org/2000/svg" width="16" height="13" viewBox="0 0 16 13">
    <path fill="#BDBDBD" fill-rule="evenodd" d="M9.143 11.429h5.714v-1.143H9.143v1.143zM5.714 6.857h9.143V5.714H5.714v1.143zm5.715-4.571h3.428V1.143H11.43v1.143zM16 9.714V12a.575.575 0 0 1-.571.571H.57A.575.575 0 0 1 0 12V9.714c0-.312.259-.571.571-.571H15.43c.312 0 .571.259.571.571zm0-4.571v2.286a.575.575 0 0 1-.571.571H.57A.575.575 0 0 1 0 7.429V5.143c0-.313.259-.572.571-.572H15.43c.312 0 .571.26.571.572zM16 .57v2.286a.575.575 0 0 1-.571.572H.57A.575.575 0 0 1 0 2.857V.571C0 .26.259 0 .571 0H15.43c.312 0 .571.259.571.571z"/>
</svg>
