<svg xmlns="http://www.w3.org/2000/svg" width="15" height="18" viewBox="0 0 15 18">
    <path fill="#AEAEAE" fill-rule="evenodd" d="M6.429.643A.647.647 0 0 0 5.786 0a.647.647 0 0 0-.643.643V4.82a.647.647 0 0 1-.643.643.647.647 0 0 1-.643-.643V.643A.647.647 0 0 0 3.214 0a.647.647 0 0 0-.643.643V4.82a.647.647 0 0 1-.642.643.647.647 0 0 1-.643-.643V.643A.647.647 0 0 0 .643 0 .647.647 0 0 0 0 .643V7.07A1.94 1.94 0 0 0 1.286 8.89v7.824c0 .703.582 1.286 1.285 1.286h1.286c.703 0 1.286-.583 1.286-1.286V8.89A1.94 1.94 0 0 0 6.429 7.07V.643zm7.714 0A.647.647 0 0 0 13.5 0h-2.571a3.224 3.224 0 0 0-3.215 3.214v8.036c0 .17.151.321.322.321h2.25v5.143c0 .703.582 1.286 1.285 1.286h1.286c.703 0 1.286-.583 1.286-1.286V.643z"/>
</svg>
