<svg width="48" height="48" viewBox="0 0 48 48" fill="none" xmlns="http://www.w3.org/2000/svg">
<path fill-rule="evenodd" clip-rule="evenodd" d="M3.41406 0.585938C2.63281 -0.195312 1.36719 -0.195312 0.585938 0.585938C-0.195312 1.3667 -0.195312 2.6333 0.585938 3.41406L11.1699 13.998L0.585938 24.5815C-0.195312 25.3623 -0.195312 26.6289 0.585938 27.4097C1.36719 28.1909 2.63281 28.1909 3.41406 27.4097L13.998 16.8257L24.582 27.4097C25.3633 28.1909 26.6289 28.1909 27.4102 27.4097C28.1914 26.6289 28.1914 25.3623 27.4102 24.5815L16.8262 13.998L27.4102 3.41406C28.1914 2.6333 28.1914 1.3667 27.4102 0.585938C26.6289 -0.195312 25.3633 -0.195312 24.582 0.585938L13.998 11.1699L3.41406 0.585938Z" transform="translate(10.002 10.002)" fill="#2574CF"/>
</svg>
