<svg width="48" height="48" viewBox="0 0 48 48" fill="none" xmlns="http://www.w3.org/2000/svg">
<path opacity="0.6" fill-rule="evenodd" clip-rule="evenodd" d="M0 24C0 10.7452 10.7452 0 24 0C37.2548 0 48 10.7452 48 24C48 37.2548 37.2548 48 24 48C10.7452 48 0 37.2548 0 24Z" fill="white"/>
<path fill-rule="evenodd" clip-rule="evenodd" d="M8.10155 26.1115V13.0542H11.7059L12.1836 8.5546H8.10155L8.10768 6.30251C8.10768 5.12894 8.21918 4.50012 9.90476 4.50012H12.1581V0H8.55319C4.22314 0 2.69907 2.18279 2.69907 5.85357V8.55511H0V13.0547H2.69907V26.1115H8.10155Z" transform="translate(17.0645 10.6665)" fill="#C2C2C2"/>
</svg>
