<svg width="48" height="48" viewBox="0 0 48 48" fill="none" xmlns="http://www.w3.org/2000/svg">
<path opacity="0.6" fill-rule="evenodd" clip-rule="evenodd" d="M0 24C0 10.7452 10.7452 0 24 0C37.2548 0 48 10.7452 48 24C48 37.2548 37.2548 48 24 48C10.7452 48 0 37.2548 0 24Z" fill="white"/>
<path fill-rule="evenodd" clip-rule="evenodd" d="M8.48535 10.3997V7.42822H16.499C16.5713 7.86157 16.6318 8.29492 16.6318 8.8645C16.6318 13.8167 13.3828 17.3328 8.48535 17.3328C3.79395 17.3328 0 13.4575 0 8.66626C0 3.875 3.79395 0 8.48535 0C10.7773 0 12.6924 0.854248 14.1709 2.26562L11.8682 4.53125C11.2373 3.91235 10.1348 3.19409 8.48535 3.19409C5.58887 3.19409 3.22461 5.64551 3.22461 8.66626C3.22461 11.6873 5.58887 14.1387 8.48535 14.1387C11.8438 14.1387 13.1045 11.6748 13.2988 10.3997H8.48535ZM24.2393 7.4292H26.6641V9.90527H24.2393V12.3813H21.8154V9.90527H19.3906V7.4292H21.8154V4.95312H24.2393V7.4292Z" transform="translate(10.666 15.9995)" fill="#C2C2C2"/>
</svg>
