<svg width="48" height="48" viewBox="0 0 48 48" fill="none" xmlns="http://www.w3.org/2000/svg">
<path opacity="0.6" fill-rule="evenodd" clip-rule="evenodd" d="M0 24C0 10.7452 10.7452 0 24 0C37.2548 0 48 10.7452 48 24C48 37.2548 37.2548 48 24 48C10.7452 48 0 37.2548 0 24Z" fill="white"/>
<path fill-rule="evenodd" clip-rule="evenodd" d="M9.84471 6.19434C9.84471 4.78027 8.65233 3.63037 7.18748 3.63037C5.72362 3.63037 4.53123 4.78027 4.53123 6.19434C4.53123 7.60718 5.72362 8.75781 7.18748 8.75781C8.65233 8.75781 9.84471 7.60718 9.84471 6.19434ZM13.6035 6.1936C13.6035 9.60791 10.7265 12.3853 7.18748 12.3853C3.6494 12.3853 0.771467 9.60791 0.771467 6.1936C0.771467 2.77808 3.6494 0 7.18748 0C10.7265 0 13.6035 2.77808 13.6035 6.1936ZM13.5215 15.9507C12.3613 16.6541 11.1015 17.1528 9.79588 17.4399L13.3828 20.9026C14.1172 21.6104 14.1172 22.7598 13.3828 23.4683C12.6484 24.177 11.459 24.177 10.7256 23.4683L7.1992 20.0659L3.67576 23.4683C3.30858 23.8223 2.82713 23.9993 2.34569 23.9993C1.86522 23.9993 1.38475 23.8223 1.01756 23.4683C0.283186 22.7598 0.283186 21.6111 1.01658 20.9026L4.6035 17.4399C3.29783 17.1528 2.03807 16.6533 0.877912 15.9507C-1.72065e-05 15.4165 -0.263689 14.2969 0.289045 13.4487C0.840803 12.5994 2.00096 12.3438 2.88084 12.8782C5.50682 14.4729 8.89061 14.4734 11.5185 12.8782C12.3984 12.3438 13.5576 12.5994 14.1113 13.4487C14.664 14.2961 14.3994 15.4165 13.5215 15.9507Z" transform="translate(16.7988 12)" fill="#C2C2C2"/>
</svg>
