<svg width="21" height="24" viewBox="0 0 21 24" fill="none" xmlns="http://www.w3.org/2000/svg">
<path d="M17.5 16.9759C16.6133 16.9759 15.8142 17.3313 15.2075 17.9036L6.895 12.8976C6.95917 12.6265 7 12.3434 7 12.0542C7 11.7651 6.95917 11.4819 6.895 11.2108L15.12 6.25301C15.7442 6.85542 16.5783 7.22892 17.5 7.22892C19.4308 7.22892 21 5.60843 21 3.61446C21 1.62048 19.4308 5.74502e-09 17.5 5.74502e-09C15.5692 5.74502e-09 14 1.62048 14 3.61446C14 3.90361 14.0408 4.18675 14.105 4.45783L5.88 9.41566C5.25583 8.81325 4.42167 8.43976 3.5 8.43976C1.56917 8.43976 0 10.0602 0 12.0542C0 14.0482 1.56917 15.6687 3.5 15.6687C4.42167 15.6687 5.25583 15.2952 5.88 14.6928L14.1925 19.6988C14.1342 19.9518 14.0992 20.2169 14.0992 20.488C14.0992 22.4277 15.6217 24 17.5 24C19.3783 24 20.9008 22.4277 20.9008 20.488C20.9008 18.5482 19.3783 16.9759 17.5 16.9759Z" fill="#2574CF"/>
</svg>
