<svg width="48" height="48" viewBox="0 0 48 48" fill="none" xmlns="http://www.w3.org/2000/svg">
<path opacity="0.6" fill-rule="evenodd" clip-rule="evenodd" d="M0 24C0 10.7452 10.7452 0 24 0C37.2548 0 48 10.7452 48 24C48 37.2548 37.2548 48 24 48C10.7452 48 0 37.2548 0 24Z" fill="white"/>
<path fill-rule="evenodd" clip-rule="evenodd" d="M10.3586 4.61094L10.4048 5.36065L9.63407 5.26885C6.82863 4.91694 4.37772 3.72352 2.29676 1.71918L1.2794 0.724657L1.01736 1.45907C0.462435 3.09621 0.816969 4.82514 1.97306 5.98797C2.58964 6.63058 2.45091 6.72238 1.38731 6.33987C1.01736 6.21747 0.693653 6.12567 0.662824 6.17157C0.554922 6.27867 0.924871 7.671 1.21775 8.22181C1.61852 8.98683 2.43549 9.73654 3.32953 10.1803L4.08485 10.5322L3.1908 10.5475C2.32759 10.5475 2.29676 10.5628 2.38925 10.8841C2.69754 11.8786 3.91529 12.9343 5.27176 13.3933L6.22746 13.7146L5.39508 14.2042C4.16192 14.9081 2.71295 15.3059 1.26399 15.3365C0.570337 15.3518 0 15.413 0 15.4589C0 15.6119 1.88057 16.4687 2.975 16.8053C6.25829 17.7998 10.1582 17.3714 13.0869 15.6731C15.1679 14.4643 17.2488 12.0622 18.22 9.73654C18.744 8.49722 19.2681 6.23277 19.2681 5.14645C19.2681 4.44263 19.3144 4.35083 20.1776 3.50932C20.6863 3.01971 21.1641 2.48419 21.2566 2.33119C21.4108 2.04048 21.3953 2.04048 20.6092 2.30059C19.299 2.7596 19.114 2.6984 19.7614 2.00988C20.2393 1.52027 20.8096 0.632856 20.8096 0.37275C20.8096 0.326849 20.5784 0.403351 20.3163 0.541054C20.0389 0.694057 19.4223 0.923562 18.9598 1.06126L18.1275 1.32137L17.3722 0.816459C16.956 0.541054 16.3702 0.235047 16.0619 0.143245C15.2758 -0.070959 14.0734 -0.0403584 13.3644 0.204447C11.4376 0.892961 10.2198 2.6678 10.3586 4.61094Z" transform="translate(13.3359 15.9995)" fill="#C2C2C2"/>
</svg>
